<?xml version="1.0" encoding="utf-8"?>
<!-- Generator: Adobe Illustrator 26.3.1, SVG Export Plug-In . SVG Version: 6.00 Build 0)  -->
<svg version="1.1" id="Layer_1" xmlns="http://www.w3.org/2000/svg" xmlns:xlink="http://www.w3.org/1999/xlink" x="0px" y="0px"
	 viewBox="0 0 303.4 303.4" style="enable-background:new 0 0 303.4 303.4;" xml:space="preserve">
<style type="text/css">
	.st0{fill:#FFFFFF;}
</style>
<g id="XMLID_00000165205567287622446450000007266513750646876058_">
	<path id="XMLID_00000002352618795175085650000017559495046648527032_" class="st0" d="M79.5-201.9c-1.8,0-3.4,0.1-4.9,0
		c-2.7-0.1-4.5-1.7-4.5-4.4c-0.1-6.2-0.1-12.3,0-18.5c0-2.7,1.8-4.3,4.5-4.4c1.4-0.1,2.8,0,4.5,0c-0.9-17.1,4.1-32.1,15.6-44.6
		c11.6-12.5,26.1-18.7,43.4-19.2c0-1.8,0-3.5,0-5.3c0-5.7,0-11.4,0-17c0-3.1,1.7-4.7,4.7-4.8c5.9-0.1,11.7,0,17.6,0
		c3.2,0,4.9,1.7,4.9,4.9c0,6.4,0,12.9,0,19.3c0,0.9,0,1.8,0,2.9c17.2,0.4,31.8,6.6,43.3,19c11.6,12.5,16.6,27.4,15.7,44.7
		c1.7,0,3,0,4.4,0c2.9,0.1,4.7,1.7,4.7,4.5c0.1,6.1,0.1,12.1,0,18.2c0,2.8-1.8,4.4-4.7,4.5c-1.5,0-3,0-4.8,0
		c-0.8,7-1.6,13.8-2.5,20.6c-1.6,13.8-3.3,27.6-4.9,41.4c-1.4,11.9-2.8,23.8-4.2,35.8c-1.6,13.9-3.3,27.8-4.9,41.7
		c-0.2,1.8-0.4,3.6-0.8,5.3c-1.5,5.7-6.9,9.8-12.8,9.8c-28.1,0-56.2,0-84.3,0c-6.8,0-12.5-4.9-13.4-11.9c-1.7-13.3-3.1-26.7-4.7-40
		c-1.4-11.9-2.8-23.8-4.2-35.8c-1.4-12-2.9-24-4.3-36C81.9-181.2,80.7-191.4,79.5-201.9z M88.8-201.8c1.1,9.5,2.2,18.9,3.3,28.3
		c1.4,11.9,2.8,23.8,4.2,35.8c1.6,13.8,3.3,27.6,4.9,41.4c1.4,11.7,2.7,23.5,4.1,35.2c0.4,3.2,2.1,4.6,5.3,4.7c2.9,0.1,5.9,0,8.8,0
		c24.2,0,48.5,0,72.7,0c4.2,0,5.8-1.5,6.2-5.7c0.2-1.8,0.4-3.6,0.6-5.4c1.4-12.1,2.8-24.2,4.3-36.3c1.4-12,2.8-24,4.2-36
		c1.4-12.2,2.9-24.4,4.3-36.6c1-8.4,1.9-16.8,2.9-25.3c-16.5,0-32.8,0-49.3,0c0,7.7,0,15.1,0,22.6c0,6.8-5,12.5-11.5,13.5
		c-6.8,1-13.2-3-15.2-9.6c-0.4-1.3-0.4-2.8-0.6-4.2c-0.4-2.5-2.3-4.3-4.5-4.3c-2.2,0-4.2,1.8-4.5,4.3c-0.1,1-0.1,2.1-0.1,3.1
		c0,6.5,0,13,0,19.8c4,0,8.4,0,12.9,0c3.7,0,5.3,1.6,5.3,5.4c0,8.5,0,17,0,25.6c0,3.9-1.6,5.4-5.6,5.4c-8.4,0-16.8,0-25.3,0
		c-4,0-5.5-1.5-5.5-5.5c0-6.8,0.1-13.6-0.1-20.4c0-0.9-0.8-2.2-1.6-2.7c-5-3-7.4-7.2-7.4-13.1c0.1-12.3,0-24.6,0-36.9c0-1,0-2,0-3
		C97.2-201.8,93-201.8,88.8-201.8z M138-283.6c-31.2,0.4-52.5,27.6-49.5,54.2c16.5,0,33,0,49.5,0C138-247.6,138-265.5,138-283.6z
		 M165.5-229.4c16.7,0,33.2,0,49.7,0c2.1-33-24.8-54.9-49.7-54C165.5-265.5,165.5-247.6,165.5-229.4z M224.3-219.9
		c-48.5,0-96.8,0-145,0c0,3.1,0,5.9,0,8.8c48.5,0,96.7,0,145,0C224.3-214.1,224.3-216.9,224.3-219.9z M110.8-201.8
		c0,13.7-0.1,27,0.1,40.3c0,1.3,0.8,3.1,1.9,3.8c1.1,0.8,3.4,1.1,4.3,0.5c1.3-0.9,2.6-2.9,2.7-4.4c0.3-5.7,0.1-11.3,0.1-17
		c0-7.8,5.4-13.9,12.5-14.2c8.2-0.4,14.1,4.9,14.7,13.1c0.2,3,2.2,5.1,4.7,5c2.6-0.1,4.3-2.2,4.4-5.3c0.1-6.6,0-13.2,0-19.9
		c0-0.6-0.1-1.3-0.2-1.9C141-201.8,126.1-201.8,110.8-201.8z M156.1-229.3c0-18.2,0-36.2,0-54.2c-3.1,0-5.9,0-8.8,0
		c0,18.2,0,36.1,0,54.2C150.3-229.3,153.1-229.3,156.1-229.3z M138-129.3c0-6.1,0-12,0-17.9c-6,0-11.9,0-17.9,0c0,6.1,0,12,0,17.9
		C126.1-129.3,131.9-129.3,138-129.3z M147.4-310.9c0,6.2,0,12.1,0,17.9c3,0,5.8,0,8.7,0c0-6,0-11.9,0-17.9
		C153.1-310.9,150.3-310.9,147.4-310.9z"/>
	<path id="XMLID_00000151506563827825392220000017413022762365543595_" class="st0" d="M174.4-92.9c0,4.3,0,8.5,0,12.8
		c0,3.8-1.6,5.4-5.3,5.4c-8.6,0-17.2,0-25.8,0c-3.7,0-5.3-1.6-5.3-5.4c0-8.5,0-17,0-25.5c0-3.9,1.5-5.4,5.5-5.4c8.4,0,16.8,0,25.2,0
		c4.1,0,5.5,1.5,5.5,5.7C174.4-101.2,174.4-97,174.4-92.9z M165.2-101.7c-6.1,0-12,0-17.9,0c0,6,0,11.9,0,17.8c6,0,11.9,0,17.9,0
		C165.2-89.9,165.2-95.7,165.2-101.7z"/>
	<path id="XMLID_00000053511377022901185040000017102234992207158957_" class="st0" d="M179.1-175.1c1.3,0.7,2.6,1.2,3.4,2.1
		c5.9,5.8,11.7,11.6,17.5,17.4c2.4,2.4,2.5,4.8,0.1,7.2c-5.8,5.9-11.6,11.7-17.5,17.5c-2.5,2.4-4.8,2.5-7.2,0.1
		c-5.9-5.8-11.7-11.6-17.5-17.5c-2.4-2.5-2.5-4.8-0.1-7.2c5.8-5.9,11.7-11.8,17.7-17.6C176.4-174,177.8-174.4,179.1-175.1z
		 M168.2-152.3c3.8,3.8,7.5,7.6,10.8,10.8c3.5-3.5,7.3-7.2,10.5-10.5c-3.5-3.5-7.3-7.3-10.8-10.8
		C175.3-159.3,171.5-155.6,168.2-152.3z"/>
	<path id="XMLID_00000014622578520408662190000006281384012544281487_" class="st0" d="M192.5-183.8c-2.6-0.1-4.5-2.2-4.4-4.8
		c0.1-2.5,2.1-4.3,4.7-4.3c2.6,0.1,4.5,2.1,4.4,4.8C197-185.5,195-183.7,192.5-183.8z"/>
	<path id="XMLID_00000182508759497277751290000013653234876453188241_" class="st0" d="M188.2-102c-2.5,0.1-4.5-1.8-4.6-4.3
		c-0.1-2.7,1.8-4.7,4.4-4.8c2.7-0.1,4.7,1.9,4.6,4.6C192.6-103.9,190.7-102,188.2-102z"/>
	<path id="XMLID_00000097492536820770959270000009012471090554115461_" class="st0" d="M120-74.7c-2.5,0-4.5-1.8-4.6-4.4
		c-0.1-2.7,1.8-4.7,4.5-4.7c2.7,0,4.6,2,4.6,4.6C124.4-76.6,122.5-74.7,120-74.7z"/>
</g>
<g id="XMLID_00000057833670336925972320000009706267316104795056_">
	<path id="XMLID_00000000941628548088289970000009795498669203337620_" class="st0" d="M748.8-56.7c-1.7-0.6-3.5-1-5.1-1.7
		c-6.6-2.8-11-7.7-13.2-14.5c-6.8-20.8-13.5-41.7-20.4-62.5c-0.3-1-1.1-2-2-2.5c-16.7-8.8-18.2-30.3-3-41.3c0.3-0.2,0.5-0.4,0.6-0.4
		c-1.1-3.3-2.4-6.4-3-9.7c-1.7-9.6,1.6-17.5,8.9-23.9c2.3-2,4.6-2,6.1-0.2c1.5,1.8,1,4-1.3,6c-5.6,4.8-7.7,10.9-6.1,18
		c1.6,7.1,6.3,11.6,13.5,13.4c1.9,0.5,3.9,0.5,5.9,0.6c6.9,0.3,13.9,0.5,20.8,0.6c11.1,0.2,21.1,3.5,29.8,10.4
		c7.8,6.1,16.7,9.3,26.7,8.9c8.8-0.3,16.6-3.2,23.5-8.6c3.3-2.6,6.9-3.6,10.9-2.5c4.9,1.3,8.2,5.6,8.2,10.8c0.1,9.5,0,19,0,28.5
		c0,5.7,4.5,9.3,9.6,8c3.4-0.9,5.7-4,5.7-8.1c0-11.2,0-22.5,0-33.7c0-8.5,5.5-14,14-14.3c3.1-0.1,6.3-0.2,9.3-1
		c6.9-1.8,11.3-6.6,12.7-13.5c1.5-7.1-0.7-13.3-6.5-17.8c-5.6-4.4-11.4-8.5-17.2-12.7c-4.4-3.2-7.7-7.2-9.6-12.3
		c-2.5-6.6-6.1-12.6-10.8-17.9c-1.3-1.4-2.1-3.1-0.8-4.7c0.9-1,2.5-1.7,3.9-1.8c0.9-0.1,2,1,2.7,1.8c5,5.5,8.9,11.7,11.5,18.7
		c1.6,4.4,4.3,7.9,8.2,10.6c5.2,3.7,10.3,7.5,15.4,11.3c11.2,8.3,14.2,20.9,8,33.4c-0.1,0.3-0.2,0.6-0.5,1.3
		c0.2,0.1,0.5,0.2,0.8,0.4c15.9,11.3,14.3,33.1-3.1,41.9c-0.8,0.4-1.6,1.4-1.9,2.3c-2.4,7-4.6,14.1-6.9,21.1
		c-0.2,0.5-0.3,0.9-0.5,1.4c-0.9,2.2-2.9,3.2-5,2.5c-1.9-0.7-2.8-2.7-2.1-4.9c1.9-6.1,3.9-12.1,5.8-18.1c0.2-0.6,0.4-1.2,0.6-2.1
		c-6.9,0-13.6,0-20.7,0c0,2.3-0.2,4.7,0,7c0.7,8.7-4.8,16.2-14.9,17.3c-2.9,15.5-5.8,31.1-8.8,47.2c4.8-0.2,9.3,0,13.6-0.8
		c5.6-1,9.3-4.7,11.2-10.1c2.7-8,5.2-16,7.9-24c1-3.1,2.8-4.3,5.2-3.4c2.2,0.8,2.9,2.8,1.9,5.8c-2.5,7.6-4.9,15.2-7.4,22.8
		c-2.9,8.9-8.7,14.6-18,16.6c-0.2,0-0.4,0.3-0.6,0.4C824.5-56.7,786.7-56.7,748.8-56.7z M842.1-143.1c0-4.4,0.1-8.4,0-12.5
		c-0.1-3.4-3.4-4.9-6.3-3c-0.5,0.3-0.9,0.7-1.4,1.1c-10.7,7.9-22.7,11-36,9.1c-9-1.3-16.8-5.2-23.9-10.7c-5.7-4.5-12.3-7.2-19.5-7.7
		c-8.7-0.6-17.3-0.8-26-1c-6.1-0.1-11.7-1.6-16.7-5.2c-0.6-0.4-1.9-0.5-2.6-0.1c-5.3,3-8.5,10.1-7.4,16.1c1.6,8.8,8.1,14,17.4,14
		c39.9,0,79.7,0,119.6,0C840.1-143.1,840.9-143.1,842.1-143.1z M789.8-135.5c1.7,23.9,3.3,47.6,5,71.2c7.4,0,14.5,0,21.8,0
		c1.7-23.8,3.3-47.5,4.9-71.2C810.7-135.5,800.4-135.5,789.8-135.5z M762.5-63.9c-4.5-24.2-8.9-47.9-13.4-71.6
		c-10.5,0-20.7,0-30.9,0c0.1,0.4,0.1,0.7,0.2,1c6.5,20.2,13,40.3,19.7,60.4c1.8,5.3,5.8,8.7,11.4,9.5
		C753.6-64,757.9-64.1,762.5-63.9z M756.9-135.5c4.5,23.9,8.9,47.6,13.3,71.3c5.7,0,11.2,0,16.9,0c-1.7-23.8-3.3-47.5-5-71.3
		C773.7-135.5,765.5-135.5,756.9-135.5z M829.1-135.5c-1.7,23.8-3.3,47.5-5,71.3c5.8,0,11.3,0,16.8,0c0.1-0.3,0.2-0.5,0.2-0.7
		c2.9-15.6,5.9-31.1,8.7-46.7c0.1-0.7-0.5-1.8-1.1-2.3c-4.4-3.3-6.7-7.6-6.6-13.2c0-2.8,0-5.6,0-8.4
		C837.6-135.5,833.5-135.5,829.1-135.5z M872.4-143.4c7.9,0,15.7,0.4,23.4-0.1c6.6-0.4,12-5.9,13.3-12.3c1.4-6.9-1.3-13.5-6.9-17.3
		c-1.4-0.9-2.2-0.8-3.7,0.1c-2.8,1.7-5.8,3.3-8.9,4.1c-3.3,0.9-6.8,0.8-10.3,1c-3.9,0.2-6.7,2.2-6.9,5.8
		C872.2-155.9,872.4-149.6,872.4-143.4z"/>
	<path id="XMLID_00000159459616413458468990000001482621476882052240_" class="st0" d="M780.3-266.7c-17.8,5.8-30.4,16.8-37,34.4
		c-2.6,7-8.1,11.3-14,15.2c-1.8,1.2-3.6,0.5-4.8-1.2c-1.1-1.6-0.9-3.3,0.4-4.8c0.2-0.2,0.4-0.4,0.6-0.5c6.7-3.9,10.1-10,13.3-16.9
		c6.9-15.3,18.8-25.8,34.5-31.5c3.9-1.4,5.8-3.2,6.4-7.7c1.8-13.4,13.1-22.5,26.7-22.2c1.9,0,2.9-0.5,4-2.1c1.3-2.1,3-3.9,4.8-5.7
		c1.7-1.7,4-1.6,5.5-0.1c1.5,1.6,1.4,3.5-0.1,5.3c-1.3,1.5-2.6,2.9-3.6,4.1c3.2,2.8,6.5,5.1,9.1,8c4,4.4,5.9,9.9,6.1,15.8
		c0,1.6,0.6,2.3,2,2.9c4.9,2.1,9.8,4.4,14.6,6.7c1.6,0.8,2.6,2.4,1.9,4.1c-0.5,1.2-1.7,2.4-2.9,2.9c-0.9,0.3-2.3-0.4-3.4-0.9
		c-4.4-2-8.8-4.1-13.2-6.1C821.7-243.1,789.6-243.1,780.3-266.7z M812.8-292.8c-0.2,4.5-0.4,8.6-0.5,12.6c-0.1,2.8-1.6,4.6-3.8,4.5
		c-2.2-0.1-3.7-1.8-3.6-4.5c0.1-4.7,0.3-9.5,0.5-14.2c-8.4-0.6-17.1,6.8-18.4,15.6c-1.5,10.5,4.7,19.6,14.9,21.8
		c9.2,2.1,19-3.7,21.9-12.8C826.5-278.8,822-289,812.8-292.8z"/>
	<path id="XMLID_00000142876165286949161280000004730285191486685356_" class="st0" d="M824.9-189.7c-1.2,0-2.5,0.1-3.7,0
		c-2.1-0.1-3.6-1.7-3.6-3.7c0-2.2,1.4-3.7,3.7-3.7c2.4-0.1,4.8-0.1,7.2,0c2.1,0.1,3.6,1.7,3.6,3.6c0,2-1.4,3.6-3.5,3.8
		C827.4-189.6,826.2-189.7,824.9-189.7z"/>
	<path id="XMLID_00000096061204001675974750000006344208543230881932_" class="st0" d="M827.6-225.9c0.2,0.1,1,0.1,1.4,0.5
		c2.1,2.2,4.3,4.4,6.1,6.8c1.1,1.5,0.3,3.2-1.1,4.4c-1.4,1.1-3.2,1.2-4.5,0c-1.9-1.8-3.8-3.7-5.3-5.9
		C822.4-222.7,824.3-225.9,827.6-225.9z"/>
	<path id="XMLID_00000036948171769963739270000004965154669674731393_" class="st0" d="M769.6-228.3c1.3,0.5,2.1,0.6,2.8,1.1
		c1.8,1.4,3.5,2.8,5.1,4.3c1.5,1.5,1.5,3.2,0.3,4.9c-1.2,1.6-3.4,2-5.1,0.7c-1.8-1.3-3.7-2.6-5-4.3c-0.8-1-1.1-2.9-0.8-4.2
		C767.1-226.8,768.7-227.5,769.6-228.3z"/>
	<path id="XMLID_00000154404238577653856420000008348859122549104009_" class="st0" d="M810.2-227.1c-2,3-3.6,5.7-5.7,8
		c-0.6,0.6-3.1,0.4-3.9-0.3c-0.9-0.8-1.5-2.9-1.1-4c0.7-2.1,1.9-4.3,3.4-5.9c0.8-0.9,2.9-1.5,4.1-1.2
		C808-230.2,808.8-228.6,810.2-227.1z"/>
	<path id="XMLID_00000159441697907417722150000005972869735415703695_" class="st0" d="M856.1-200.4c-3.2,0-5.1-2.5-4.2-4.9
		c0.8-2,1.9-3.9,3.1-5.6c1.1-1.6,2.8-2,4.6-1c1.8,1,2.6,2.6,1.7,4.6c-0.8,1.9-1.8,3.7-3,5.4C857.8-201.1,856.6-200.7,856.1-200.4z"
		/>
	<path id="XMLID_00000018957629864095243120000011150673039926563508_" class="st0" d="M760.5-199.1c0,2.9-2.8,4.9-5.2,3.7
		c-1.9-0.8-3.6-2-5.3-3.2c-1.5-1.1-2-3-1-4.4c0.7-1.1,2.8-2.3,3.7-2c2.5,0.9,4.8,2.6,7.1,4.1C760.3-200.5,760.3-199.5,760.5-199.1z"
		/>
	<path id="XMLID_00000168839905438858625600000013588529204619890048_" class="st0" d="M794.9-201c0,2.8-3.6,7.8-5.5,8.1
		c-1.2,0.1-2.8-0.2-3.5-1c-0.8-0.9-1.3-2.8-0.9-3.7c0.9-2,2.4-4,4-5.5c0.8-0.7,2.7-0.8,3.8-0.3C793.9-203,794.5-201.5,794.9-201z"/>
	<path id="XMLID_00000179625981851733887780000000481799119465154238_" class="st0" d="M842.6-239.7c-0.1,1,0,2-0.2,2.9
		c-0.5,1.9-1.7,3-3.7,2.9c-2,0-3.3-1.1-3.6-3c-0.2-1.6-0.3-3.3-0.1-4.9c0.2-2.3,1.8-3.7,3.8-3.7c2,0,3.5,1.6,3.8,3.8
		C842.5-241,842.5-240.4,842.6-239.7C842.5-239.7,842.5-239.7,842.6-239.7z"/>
</g>
<g id="XMLID_00000140731703113276216720000016255580723766434979_">
	<path id="XMLID_00000132085693163551113930000004503675047911124384_" class="st0" d="M63.9,263.6c-1.1-0.3-2.2-0.6-3.3-0.9
		c-11.8-3-20.7-14.3-20.7-26.1c0-3.7,1.6-5.3,5.3-5.3c3.4,0,6.8,0,10.5,0c0-1,0-1.9,0-2.7c0-25.8,0-51.6,0-77.3
		c0-7.8,1.7-15.2,6.1-21.7c7.3-10.8,17.4-16.7,30.5-17c7.4-0.2,14.8,0,22.8,0c-1-1.2-1.8-2-2.5-2.9c-7.4-9-9.4-19.1-6.6-30.3
		c0.5-1.8,1.7-3,3.5-3.5c6.9-1.9,13.6-1.6,20.3,0.8c0.5,0.2,1.1,0.4,1.6,0.6c0.1,0,0.3,0,0.6,0c-0.3-5,0.2-10,2.1-14.7
		c2.9-7.5,8-13.1,14.9-17.1c1.8-1,3.4-0.7,5.1,0.4c5,3,9.1,7,12.2,12.2c1.3-2,2.4-4,3.7-5.7c5.9-7.8,13.8-11.9,23.5-12.3
		c3-0.1,5,1.5,5.2,4.1c0.2,2.5-1.6,4.4-4.7,4.6c-8.9,0.7-15.6,4.8-19.4,13c-0.6,1.4-1,2.8-1.5,4.5c10.4,2.5,17.9,8.4,21.4,18.5
		c3.5,10.1,1.3,19.3-5.7,27.7c0.9,0.1,1.5,0.1,2.1,0.1c7.2,0,14.4,0,21.6,0c19.6,0.1,35.7,15,37.2,34.5c0.2,2.1,0.2,4.2,0.2,6.3
		c0,25.1,0,50.1,0,75.2c0,0.9,0,1.7,0,2.9c2.7,0,5.2,0.1,7.7,0c2.7-0.2,4.7,0.7,5.9,3.1c0,1.7,0,3.5,0,5.2c-0.1,0.2-0.3,0.5-0.4,0.7
		c-2.2,11.2-8.8,18.5-19.5,22.1c-1.3,0.5-2.7,0.8-4.1,1.2C181,263.6,122.4,263.6,63.9,263.6z M49.3,240c0.1,0.7,0.2,1,0.3,1.4
		c2.6,8.2,10,13.5,19.3,13.5c55.2,0,110.4,0,165.6-0.1c3.2,0,6.7-0.9,9.7-2.2c5.3-2.3,8.5-6.7,10-12.6c-1,0-1.8,0-2.6,0
		c-26.4,0-52.7,0-79.1,0c-0.7,0-1.5,0-2.2,0c-2.3-0.3-4-2.2-4-4.5c0.1-2.2,1.8-4,4-4.2c0.7-0.1,1.5,0,2.2,0c21.9,0,43.8,0,65.8,0
		c0.8,0,1.7,0,2.5,0c0-19.5,0-38.7,0-58.1c-1.1,0.7-2,1.3-3,1.9c-6.4,3.6-12.9,3.7-19.2,0c-3.2-1.9-6.2-4.1-9.2-6.2
		c-4.4-3-8.1-3-12.5,0c-3.1,2.1-6.2,4.4-9.4,6.3c-6.1,3.6-12.5,3.6-18.7,0.1c-3.4-1.9-6.5-4.4-9.8-6.5c-4.1-2.8-8.1-2.7-12.2,0
		c-3.3,2.2-6.4,4.6-9.8,6.5c-6,3.4-12.2,3.5-18.3,0.1c-3.4-1.9-6.5-4.3-9.8-6.5c-4.3-2.9-8.2-2.9-12.5,0c-2.7,1.8-5.4,3.7-8.1,5.6
		c-4.9,3.3-10.3,4.3-16,2.6c-2.6-0.8-4.9-2.3-7.4-3.5c0,19.2,0,38.4,0,57.8c1,0,1.9,0,2.7,0c21.1,0,42.2,0,63.3,0
		c0.7,0,1.5-0.1,2.2,0c2.1,0.3,3.4,1.4,3.9,3.5c0.6,3-1.5,5.1-5.1,5.1c-26.6,0-53.3,0-79.9,0C51.1,240,50.3,240,49.3,240z
		 M65.2,142.1c-0.2,4.1-0.4,8.1-0.5,12c-0.1,2.7-0.7,5.8,0.4,7.9c1.1,2.1,4.1,3.3,6.3,4.8c4,2.7,8.1,2.7,12.2-0.1
		c2.7-1.8,5.4-3.8,8.1-5.5c7.2-4.7,14.5-4.7,21.7,0c2.7,1.8,5.4,3.7,8.1,5.6c4.1,2.8,8.2,2.8,12.4,0c3.2-2.2,6.3-4.5,9.6-6.4
		c6.1-3.6,12.5-3.6,18.7,0c3.4,2,6.5,4.4,9.8,6.6c3.9,2.6,8.1,2.6,12,0c2.6-1.7,5.1-3.6,7.7-5.3c7.6-5.1,15.2-5.1,22.8,0.1
		c2.6,1.8,5.2,3.7,7.9,5.5c3.5,2.3,7.2,2.5,10.9,0.3c2.3-1.4,4.5-3,6.7-4.6c0.5-0.3,0.9-1,0.9-1.5c0-5.1,0.5-10.3-0.2-15.3
		c-2-14.8-13.8-24.8-28.8-24.9c-39.3-0.1-78.6,0-118,0c-4.7,0-9.3,0.9-13.5,3.1c-4.2,2.1-7.7,5-10.6,9.2c0.8,0,1.3,0,1.7,0
		c10.8,0,21.7,0,32.5,0c2.7,0,4.7,2,4.7,4.4c-0.1,2.4-2,4.2-4.6,4.3c-0.7,0-1.3,0-2,0C90.1,142.1,78,142.1,65.2,142.1z M187.2,93.6
		c0-10.5-8.4-18.9-18.8-18.9c-10.3,0-18.9,8.4-18.8,18.7c0.1,10.6,8.1,18.9,18.8,18.9C179.5,112.3,187.1,103.4,187.2,93.6z
		 M142.1,111.8c0.2-1.1,0.4-2.1,0.5-3.1c0.8-15-12.3-27.2-27.2-25.2c-0.6,0.1-1.5,1-1.6,1.5c-0.5,4.7,0,9.3,2.2,13.6
		C120.8,108.5,129.9,113.1,142.1,111.8z M151.4,54.3c-10.6,6.6-12.9,21.6-8.5,28.4c3.5-8,9.6-13.2,17.8-16
		C158.9,61.5,155.8,57.5,151.4,54.3z"/>
	<path id="XMLID_00000139978502222851187500000010923492926398240959_" class="st0" d="M156.1,235.7c0,2.3-2,4.3-4.3,4.3
		c-2.4,0-4.4-2-4.4-4.4c0-2.4,2.1-4.4,4.5-4.3C154.3,231.4,156.1,233.3,156.1,235.7z"/>
	<path id="XMLID_00000076605911341211265820000011032144244475857328_" class="st0" d="M125.5,137.9c-0.1,2.4-2,4.2-4.4,4.2
		c-2.4,0-4.4-2.1-4.3-4.5c0.1-2.3,2-4.2,4.4-4.2C123.6,133.4,125.6,135.4,125.5,137.9z"/>
</g>
<g id="XMLID_00000097461375302220341250000018430151976894835333_">
	<path id="XMLID_00000012429981610662733610000016110661364310421155_" class="st0" d="M356.9-208.5c1.2-2.5,3.3-3.3,6.1-3.3
		c38.1,0.1,76.3,0,114.4,0c0.9,0,1.9,0,3,0c0.1-3.7,0.1-7.5,5.2-7.4c3,0,4.1,1.9,4.5,7.4c0.8,0,1.6,0,2.5,0c15.7,0,31.5,0,47.2,0
		c4.3,0,5.8,1.5,5.8,5.9c0,2.2,0.1,4.4,0,6.5c0,1.3,0.2,1.9,1.7,2.1c23.9,2.9,43.7,22,47.8,45.8c5.2,30.3-14,58.9-43.9,65.1
		c-3.9,0.8-8,1-12,1.1c-8.8,0.2-17.6,0-26.4,0.1c-1.3,0-2.8,0.5-3.8,1.3C490.2-69.6,469-63,445.4-64.3c-15.5-0.9-30-5.5-43.3-13.7
		c-3.1-1.9-3.9-4.5-2.3-7c1.5-2.4,4.2-2.8,7.2-1.1c14.6,8.9,30.5,13.1,47.6,12.4c39.8-1.7,72.8-30.1,80.3-69.2
		c0.8-4.1,1.1-8.3,1.6-12.8c-0.9,0.5-1.5,0.8-2,1.1c-6,4-12.4,7.1-19.3,9c-1.5,0.4-2,1.1-1.9,2.6c0.1,7,0,14,0,21
		c0,4.9-1.5,6.4-6.4,6.4c-14.5,0-29,0-43.4,0c-4.3,0-5.9-1.6-5.9-5.9c0-10.4,0-20.9,0-31.3c0-1.5-0.4-2.4-1.6-3.3
		c-3-2.4-6-4.9-8.8-7.6c-21.9-20.8-55.8-21.7-78.7-2.2c-1.5,1.3-2,2.6-2.1,4.6c-0.1,16.4,3.5,31.7,11.8,45.9c1.8,3,1.2,5.8-1.3,7.3
		c-2.5,1.4-5,0.5-6.8-2.5c-7.1-12-11.3-25-12.6-38.9c0-0.5-0.3-1-0.4-1.5C356.9-170.2,356.9-189.4,356.9-208.5z M480.5-202.3
		c-38.2,0-76.1,0-114.1,0c0,8.6,0,17,0,25.5c0.2,0.1,0.3,0.1,0.3,0.1c0.6-0.4,1.2-0.7,1.8-1.1c15.3-10,32-13.6,50.1-10.4
		c13.7,2.4,25.5,8.6,35.5,18.3c1.5,1.5,3.1,2.9,4.8,4.4c4.3-4.3,8.4-8.2,12.2-12.4c2.5-2.6,5-4.6,8.9-4c0.1,0,0.3-0.1,0.5-0.3
		C480.5-188.8,480.5-195.5,480.5-202.3z M490.1-181.7c4.3-1.2,6.8,1.1,9.3,3.7c3.7,3.9,7.5,7.7,11.4,11.4c1.7,1.6,2.5,3.5,2.4,5.8
		c-0.1,1.9,0,3.8,0,5.9c8.3-2.6,15.3-6.6,21.6-12c1.1-1,1.5-1.9,1.5-3.4c-0.1-10,0-20.1,0-30.1c0-0.7-0.1-1.3-0.1-2
		c-15.4,0-30.7,0-46,0C490.1-195.5,490.1-188.8,490.1-181.7z M466.9-125.2c12.4,0,24.5,0,36.7,0c0-11.5,0-22.9,0-34.2
		c0-0.7-0.5-1.5-1-2c-3.4-3.5-6.8-6.9-10.2-10.2c-0.5-0.5-1.3-0.8-2.1-1.3c-0.9,6.8-2,8.8-5.1,8.5c-1.1-0.1-2.7-0.6-3.1-1.3
		c-1-2.1-1.5-4.4-2.3-7c-0.4,0.3-1.3,0.6-1.8,1.1c-3.3,3.3-6.7,6.5-9.9,9.9c-0.7,0.8-1.3,2.1-1.3,3.2c-0.1,10.3-0.1,20.7-0.1,31
		C466.8-126.6,466.9-126,466.9-125.2z M545.7-178.8c0.6,0.2,1.1,0.3,1.7,0.5c20.4,4.8,32.4,22.4,29.5,43.2
		c-2.1,15-15.5,28.7-30.5,30.7c-5.4,0.7-10.9,0.4-16.3,0.6c-0.7,0-1.6-0.1-2,0.3c-2.4,2.9-4.7,5.8-7.2,9c7.2,0,14.1,0.1,20.9-0.1
		c2.7-0.1,5.5-0.4,8.1-1.1c19-4.9,31.4-16.8,35.6-36c4-18.7-2.2-34.3-16.9-46.5c-6.6-5.5-14.3-8.6-22.9-9.7
		C545.7-184.9,545.7-181.9,545.7-178.8z M534.2-113.4c21.6,2,33.6-13,33.9-27.8c0.2-13.4-11.7-28-22.5-27.5
		C546.8-149.3,543.8-130.8,534.2-113.4z"/>
	<path id="XMLID_00000155117635656593228260000004330067708383026851_" class="st0" d="M511.1-303.4c2.4,1.5,3.1,3.8,3,6.5
		c-0.2,5.5,0.1,11.1-0.2,16.6c-0.8,15.3-13.2,28.6-28.4,30.1c-6.7,0.7-13.5,0.4-20.3,0.4c-2.3,0-4.4-1.2-4.5-3.6
		c-0.3-9.9-1.8-20,2.2-29.5c4.6-11.1,13-17.7,24.8-20.1c0.4-0.1,0.7-0.3,1-0.5C496.1-303.4,503.6-303.4,511.1-303.4z M476.8-259.6
		c10.8,1.8,20.8-3.4,25.4-12.8c3.5-6.9,2-14.2,2.4-21.5c-4.5,0-8.7-0.3-12.9,0.1c-10.4,0.9-18.5,7.6-21,17.4
		c-0.8,3.2-0.7,6.6-1.1,10.4c0.9-0.6,1-0.6,1.1-0.8c3-3,5.9-6,9-8.9c0.9-0.8,2-1.6,3.1-1.9c2.1-0.5,3.8,0.3,4.9,2.2
		c1.1,1.8,0.8,4.1-0.9,5.8C483.6-266.3,480.3-263,476.8-259.6z"/>
	<path id="XMLID_00000003800712856636292310000010507764476027450543_" class="st0" d="M388.6-272.1c0-3.2-0.1-6.4,0-9.6
		c0.1-2.7,1.7-4.7,4.2-4.7c7.5,0,15.2-0.6,22.6,0.7c15.8,2.7,26.4,15.9,26.8,32.1c0.1,5.1,0.1,10.1,0,15.2c0,3.9-1.8,5.6-5.7,5.6
		c-5.1,0-10.3,0-15.4,0c-17.3,0-31.8-13.9-32.4-31.1C388.6-266.7,388.7-269.4,388.6-272.1C388.6-272.1,388.6-272.1,388.6-272.1z
		 M398-277.3c0,4.5,0,8.3,0,12.1c0.2,14.1,13.5,25.1,27.9,22.7c-3.4-3.4-6.7-6.6-10-9.9c-2.1-2.1-2.2-5-0.4-6.9c2-2.1,4.7-2,7,0.2
		c2.9,2.8,5.7,5.7,8.6,8.6c0.4,0.4,0.9,0.7,1.5,1.2c0-1.9,0-3.5,0-5c-0.3-10.4-7.6-19.8-17.7-21.8
		C409.5-277.2,403.9-276.9,398-277.3z"/>
	<path id="XMLID_00000147928670496559831270000007350413360257354661_" class="st0" d="M392-95.6c0,2.6-2.2,4.8-4.8,4.7
		c-2.4-0.1-4.5-2.3-4.6-4.7c0-2.6,2.1-4.7,4.7-4.7C390-100.3,392-98.3,392-95.6z"/>
</g>
<g id="XMLID_00000059992604109262041840000003705857343886885308_">
	<path id="XMLID_00000159430475710155988840000000583538895779080610_" class="st0" d="M1021.8-165c5.2-18.5,19.6-25.2,36.8-28.1
		c2.7-0.5,5.6-0.5,8.5-0.7c-2.2-4.6-6.5-3.4-10.2-3.7c0-2.5,0-4.9,0-7.5c4.4-0.4,8.8-0.5,12.9,2.3c4.4-8.2,11.7-11.7,20.3-13.4
		c10.4-2,20.4-0.5,30.1,3.3c2.5,1,3.2,3.2,2,5.8c-2.4,5.3-6.4,9.3-11.2,12.4c-3.1,2-6.5,3.5-9.9,5.3c12.5,6.3,22.3,14.8,21.6,31
		c-2.7-0.2-5.1-0.5-7.5-0.7c-0.4-2.5-0.5-4.8-1.1-7c-2-6.9-7.1-11.2-13.1-14.5c-5.8-3.1-12-4.8-18.5-5.1c-10-0.5-20-1.1-29.9,1.6
		c-7.5,2-14.2,5.4-19,11.7c-2.7,3.5-4.1,7.5-4,11.9c0.2,9.5,2.2,18.5,6.8,27.3c7.4-9.1,16.8-14,28.4-14.1c2.3-8.1,7.3-13.8,15.7-15
		c5.3-0.8,10.9-0.7,16.1,0.3c7.7,1.5,12.2,7.1,14.3,14.7c1.6,0.1,3.2,0.3,4.8,0.3c0.6,0,1.5-0.5,1.9-1c7.9-10.5,18.4-15.3,31.5-14.6
		c15.2,0.8,29.6,13.8,31.3,29c0.8,6.9,0.1,14,0.1,21.2c-2,0-4.5,0-7.3,0c0-4.7,0.3-9.4-0.1-14.1c-0.4-4.1-0.9-8.5-2.5-12.2
		c-4.2-9.7-12-15.1-22.5-16c-9.4-0.8-17.1,2.8-23.4,10.1c14.8,7.5,22,19.4,21.2,36.3c0.8,0,1.7,0,2.6,0c11.7,0,23.4,0,35.2,0
		c4.5,0,6.1,2.5,4.2,6.6c-1.4,2.9-2.8,5.7-4.4,8.9c1.7,0,2.9,0,4.2,0c12.9,0,25.9,0,38.8,0c7.7,0,12.7-4.9,12.7-12.5
		c0-36.5,0-73.1,0-109.6c0-0.6,0-1.1,0-1.9c-28.4,0-56.7,0-85.3,0c0,15.4,0,30.8,0,46.3c-2.7,0-5,0-7.7,0c0-0.8-0.1-1.5-0.1-2.3
		c0-15.6,0-31.2,0-46.8c0-3.9,1.2-5.1,5-5.1c30.3,0,60.6,0,90.9,0c3.7,0,4.9,1.2,4.9,4.9c0,4.7,0,9.5,0,14.3
		c2.7,0.2,5.2,0.1,7.6,0.6c9.4,1.9,15.6,9.6,15.6,19.1c0,18,0,36,0,54.1c0,11-8.5,19.4-19.5,19.5c-1.1,0-2.3,0-3.7,0
		c-0.2,6.6,0.9,13.4-4,19.4c5.4,0,10.2,0,15,0c2.6,0,5.2,0,7.8,0c3.1,0,4.4,1.4,4.4,4.4c0.1,12.3-9.6,24-21.8,26.1
		c-2.1,0.4-4.3,0.5-6.5,0.5c-63.8,0-127.5-0.1-191.3,0.1c-15.3,0.1-26.6-10.8-28.3-22.8c0-0.2-0.2-0.4-0.4-0.6c0-1.8,0-3.6,0-5.3
		c1.6-3,4.6-2.3,7.6-2.5c-2.7-3.6-5.2-6.8-7.6-10.1c0-1,0-1.9,0-2.9c1.8-3.3,5.1-2.1,7.9-2.5c-0.5-5.3,0-10.3,1.7-15.2
		c0.3-0.8-0.1-2-0.5-2.9c-2.3-5.6-4.9-11.2-6.9-16.9c-1.2-3.4-1.5-7-2.2-10.5C1021.8-157.5,1021.8-161.2,1021.8-165z M1030.1-84.9
		c2,9.5,9.8,15.5,20,15.5c63.8,0,127.7,0,191.5,0c1.7,0,3.4-0.2,5.1-0.5c7.4-1.3,14.2-8.1,14.8-15
		C1184.5-84.9,1107.4-84.9,1030.1-84.9z M1038.2-108.2c0.8,0,1.6,0,2.5,0c31.4,0,62.7,0,94.1,0.1c2.6,0,3.2-1,3.3-3.1
		c0-0.6,0.1-1.1,0-1.7c-0.6-8.9-4.1-16.4-11.7-21.3c-10.3-6.6-13.2-6.3-21.6,3.2c-3.7,4.2-5.1,9.4-5.6,14.9c-2.6,0-5.1,0-7.7,0
		c0-4.4,0.8-8.5,2.7-12.3c1.9-3.8,4.3-7.2,6.5-10.9c-4.6,0.6-8.8,2.6-12.5,5.5c-5.8,4.5-8.1,10.6-8.4,17.7c-2.7,0-5.2,0-8,0
		c0.5-3,0.8-5.8,1.5-8.5c1.5-5.5,4.6-10.2,9.2-14.7c-5.4,0.6-9.5,2.5-13.2,5.2c-6,4.5-8.5,10.7-8.8,18c-2.6,0-5.1,0-7.7,0
		c0.1-9,3.5-16.3,9.8-22.8C1044-138,1034.7-118.8,1038.2-108.2z M1247-197.7c0,26.3,0,52,0,77.8c1.3,0,2.4,0,3.5,0
		c6.8-0.2,11.8-5.1,11.8-11.9c0.1-17.9,0.1-35.9,0-53.8c0-5.3-3.2-9.8-8-11.2C1252-197.4,1249.5-197.4,1247-197.7z M1033.6-100.4
		c1.5,2.1,2.9,3.6,4,5.4c1.1,1.8,2.5,2.3,4.6,2.3c43.2-0.1,86.3,0,129.5,0c0.6,0,1.3,0.1,1.9,0c0.5-0.1,1.1-0.4,1.3-0.8
		c1.2-2.2,2.2-4.4,3.4-6.8C1130-100.4,1082.1-100.4,1033.6-100.4z M1102.2-147.1c-0.9-3.4-3.9-6.7-7.5-7.1c-4.5-0.5-9.2-0.5-13.7,0
		c-3.8,0.4-7.1,4-7.5,7.1C1083-147.1,1092.6-147.1,1102.2-147.1z M1085-194.3c9.3-1,18.1-3.1,25.1-9.8
		C1100.9-202.9,1092.6-199.4,1085-194.3z M1077.1-199.2c5.7-3.1,11.4-6.2,17-9.3C1087.4-208.8,1079.3-204.5,1077.1-199.2z"/>
	<path id="XMLID_00000079477212920322192240000007988207551818939541_" class="st0" d="M1189.6-306c1.8,0,4.2,0,6.7,0
		c0.2,4.6-1.3,8.4-4,11.9c-4.9,6.3-4.9,11-0.1,17.2c5.7,7.4,5.6,16.9,0,24.4c-1.8,2.4-2.9,5.2-4.5,8.3c-1.6,0-4.1,0-6.8,0
		c-0.2-4.5,1.1-8.5,3.9-11.7c4.8-5.4,4.7-12.2,0.1-17.7c-5.8-7-5.5-16.7-0.1-24C1186.7-299.9,1187.9-302.8,1189.6-306z"/>
	<path id="XMLID_00000122713488526175775100000005212462750006922407_" class="st0" d="M1210.9-244.1c-1.7,0-4.1,0-6.7,0
		c-0.2-4.4,1-8.5,3.8-11.6c4.9-5.4,4.8-12.3,0.1-17.9c-5.8-7-5.3-16.6,0.1-24c1.8-2.4,2.9-5.2,4.6-8.4c1.6,0,4,0,6.7,0
		c0.2,4.5-1.1,8.5-4,11.7c-4.7,5.2-4.6,12.1-0.1,17.5c5.9,7.1,5.5,16.7,0,24.2C1213.7-250.1,1212.6-247.3,1210.9-244.1z"/>
	<path id="XMLID_00000013160289163792917990000017018397842844851089_" class="st0" d="M1231.2-201.4c-2.6,0-4.9,0-7.5,0
		c0-2.5,0-4.9,0-7.5c2.5,0,4.9,0,7.5,0C1231.2-206.5,1231.2-204.1,1231.2-201.4z"/>
	<path id="XMLID_00000042014910398677460750000007224921785463097004_" class="st0" d="M1231.2-193.4c0,2.6,0,5,0,7.5
		c-2.5,0-4.9,0-7.5,0c0-2.4,0-4.8,0-7.5C1226.1-193.4,1228.5-193.4,1231.2-193.4z"/>
	<path id="XMLID_00000169517866774786249090000003913875475002109861_" class="st0" d="M1141.8-143.2c-2.5,0-4.9,0-7.4,0
		c0-2.5,0-4.9,0-7.5c2.4,0,4.8,0,7.4,0C1141.8-148.2,1141.8-145.7,1141.8-143.2z"/>
	<path id="XMLID_00000071546555973904734960000002546547977666340265_" class="st0" d="M1157.5-150.7c0,2.5,0,4.9,0,7.4
		c-2.5,0-4.9,0-7.5,0c0-2.4,0-4.8,0-7.4C1152.5-150.7,1155-150.7,1157.5-150.7z"/>
</g>
</svg>
