<?xml version="1.0" encoding="utf-8"?>
<!-- Generator: Adobe Illustrator 26.3.1, SVG Export Plug-In . SVG Version: 6.00 Build 0)  -->
<svg version="1.1" id="Layer_1" xmlns="http://www.w3.org/2000/svg" xmlns:xlink="http://www.w3.org/1999/xlink" x="0px" y="0px"
	 viewBox="0 0 303.4 303.4" style="enable-background:new 0 0 303.4 303.4;" xml:space="preserve">
<style type="text/css">
	.st0{fill:#FFFFFF;}
</style>
<g id="XMLID_00000165205567287622446450000007266513750646876058_">
	<path id="XMLID_00000002352618795175085650000017559495046648527032_" class="st0" d="M79.5,133.5c-1.8,0-3.4,0.1-4.9,0
		c-2.7-0.1-4.5-1.7-4.5-4.4c-0.1-6.2-0.1-12.3,0-18.5c0-2.7,1.8-4.3,4.5-4.4c1.4-0.1,2.8,0,4.5,0c-0.9-17.1,4.1-32.1,15.6-44.6
		c11.6-12.5,26.1-18.7,43.4-19.2c0-1.8,0-3.5,0-5.3c0-5.7,0-11.4,0-17c0-3.1,1.7-4.7,4.7-4.8c5.9-0.1,11.7,0,17.6,0
		c3.2,0,4.9,1.7,4.9,4.9c0,6.4,0,12.9,0,19.3c0,0.9,0,1.8,0,2.9c17.2,0.4,31.8,6.6,43.3,19c11.6,12.5,16.6,27.4,15.7,44.7
		c1.7,0,3,0,4.4,0c2.9,0.1,4.7,1.7,4.7,4.5c0.1,6.1,0.1,12.1,0,18.2c0,2.8-1.8,4.4-4.7,4.5c-1.5,0-3,0-4.8,0
		c-0.8,7-1.6,13.8-2.5,20.6c-1.6,13.8-3.3,27.6-4.9,41.4c-1.4,11.9-2.8,23.8-4.2,35.8c-1.6,13.9-3.3,27.8-4.9,41.7
		c-0.2,1.8-0.4,3.6-0.8,5.3c-1.5,5.7-6.9,9.8-12.8,9.8c-28.1,0-56.2,0-84.3,0c-6.8,0-12.5-4.9-13.4-11.9c-1.7-13.3-3.1-26.7-4.7-40
		c-1.4-11.9-2.8-23.8-4.2-35.8c-1.4-12-2.9-24-4.3-36C81.9,154.3,80.7,144.1,79.5,133.5z M88.8,133.7c1.1,9.5,2.2,18.9,3.3,28.3
		c1.4,11.9,2.8,23.8,4.2,35.8c1.6,13.8,3.3,27.6,4.9,41.4c1.4,11.7,2.7,23.5,4.1,35.2c0.4,3.2,2.1,4.6,5.3,4.7c2.9,0.1,5.9,0,8.8,0
		c24.2,0,48.5,0,72.7,0c4.2,0,5.8-1.5,6.2-5.7c0.2-1.8,0.4-3.6,0.6-5.4c1.4-12.1,2.8-24.2,4.3-36.3c1.4-12,2.8-24,4.2-36
		c1.4-12.2,2.9-24.4,4.3-36.6c1-8.4,1.9-16.8,2.9-25.3c-16.5,0-32.8,0-49.3,0c0,7.7,0,15.1,0,22.6c0,6.8-5,12.5-11.5,13.5
		c-6.8,1-13.2-3-15.2-9.6c-0.4-1.3-0.4-2.8-0.6-4.2c-0.4-2.5-2.3-4.3-4.5-4.3c-2.2,0-4.2,1.8-4.5,4.3c-0.1,1-0.1,2.1-0.1,3.1
		c0,6.5,0,13,0,19.8c4,0,8.4,0,12.9,0c3.7,0,5.3,1.6,5.3,5.4c0,8.5,0,17,0,25.6c0,3.9-1.6,5.4-5.6,5.4c-8.4,0-16.8,0-25.3,0
		c-4,0-5.5-1.5-5.5-5.5c0-6.8,0.1-13.6-0.1-20.4c0-0.9-0.8-2.2-1.6-2.7c-5-3-7.4-7.2-7.4-13.1c0.1-12.3,0-24.6,0-36.9c0-1,0-2,0-3
		C97.2,133.7,93,133.7,88.8,133.7z M138,51.8c-31.2,0.4-52.5,27.6-49.5,54.2c16.5,0,33,0,49.5,0C138,87.9,138,70,138,51.8z
		 M165.5,106.1c16.7,0,33.2,0,49.7,0c2.1-33-24.8-54.9-49.7-54C165.5,70,165.5,87.9,165.5,106.1z M224.3,115.6c-48.5,0-96.8,0-145,0
		c0,3.1,0,5.9,0,8.8c48.5,0,96.7,0,145,0C224.3,121.4,224.3,118.6,224.3,115.6z M110.8,133.7c0,13.7-0.1,27,0.1,40.3
		c0,1.3,0.8,3.1,1.9,3.8c1.1,0.8,3.4,1.1,4.3,0.5c1.3-0.9,2.6-2.9,2.7-4.4c0.3-5.7,0.1-11.3,0.1-17c0-7.8,5.4-13.9,12.5-14.2
		c8.2-0.4,14.1,4.9,14.7,13.1c0.2,3,2.2,5.1,4.7,5c2.6-0.1,4.3-2.2,4.4-5.3c0.1-6.6,0-13.2,0-19.9c0-0.6-0.1-1.3-0.2-1.9
		C141,133.7,126.1,133.7,110.8,133.7z M156.1,106.2c0-18.2,0-36.2,0-54.2c-3.1,0-5.9,0-8.8,0c0,18.2,0,36.1,0,54.2
		C150.3,106.2,153.1,106.2,156.1,106.2z M138,206.2c0-6.1,0-12,0-17.9c-6,0-11.9,0-17.9,0c0,6.1,0,12,0,17.9
		C126.1,206.2,131.9,206.2,138,206.2z M147.4,24.6c0,6.2,0,12.1,0,17.9c3,0,5.8,0,8.7,0c0-6,0-11.9,0-17.9
		C153.1,24.6,150.3,24.6,147.4,24.6z"/>
	<path id="XMLID_00000151506563827825392220000017413022762365543595_" class="st0" d="M174.4,242.6c0,4.3,0,8.5,0,12.8
		c0,3.8-1.6,5.4-5.3,5.4c-8.6,0-17.2,0-25.8,0c-3.7,0-5.3-1.6-5.3-5.4c0-8.5,0-17,0-25.5c0-3.9,1.5-5.4,5.5-5.4c8.4,0,16.8,0,25.2,0
		c4.1,0,5.5,1.5,5.5,5.7C174.4,234.3,174.4,238.5,174.4,242.6z M165.2,233.7c-6.1,0-12,0-17.9,0c0,6,0,11.9,0,17.8
		c6,0,11.9,0,17.9,0C165.2,245.6,165.2,239.7,165.2,233.7z"/>
	<path id="XMLID_00000053511377022901185040000017102234992207158957_" class="st0" d="M179.1,160.4c1.3,0.7,2.6,1.2,3.4,2.1
		c5.9,5.8,11.7,11.6,17.5,17.4c2.4,2.4,2.5,4.8,0.1,7.2c-5.8,5.9-11.6,11.7-17.5,17.5c-2.5,2.4-4.8,2.5-7.2,0.1
		c-5.9-5.8-11.7-11.6-17.5-17.5c-2.4-2.5-2.5-4.8-0.1-7.2c5.8-5.9,11.7-11.8,17.7-17.6C176.4,161.5,177.8,161.1,179.1,160.4z
		 M168.2,183.2c3.8,3.8,7.5,7.6,10.8,10.8c3.5-3.5,7.3-7.2,10.5-10.5c-3.5-3.5-7.3-7.3-10.8-10.8
		C175.3,176.2,171.5,179.9,168.2,183.2z"/>
	<path id="XMLID_00000014622578520408662190000006281384012544281487_" class="st0" d="M192.5,151.7c-2.6-0.1-4.5-2.2-4.4-4.8
		c0.1-2.5,2.1-4.3,4.7-4.3c2.6,0.1,4.5,2.1,4.4,4.8C197,150,195,151.8,192.5,151.7z"/>
	<path id="XMLID_00000182508759497277751290000013653234876453188241_" class="st0" d="M188.2,233.5c-2.5,0.1-4.5-1.8-4.6-4.3
		c-0.1-2.7,1.8-4.7,4.4-4.8c2.7-0.1,4.7,1.9,4.6,4.6C192.6,231.6,190.7,233.5,188.2,233.5z"/>
	<path id="XMLID_00000097492536820770959270000009012471090554115461_" class="st0" d="M120,260.8c-2.5,0-4.5-1.8-4.6-4.4
		c-0.1-2.7,1.8-4.7,4.5-4.7c2.7,0,4.6,2,4.6,4.6C124.4,258.9,122.5,260.8,120,260.8z"/>
</g>
</svg>
