<?xml version="1.0" encoding="utf-8"?>
<!-- Generator: Adobe Illustrator 26.3.1, SVG Export Plug-In . SVG Version: 6.00 Build 0)  -->
<svg version="1.1" id="Layer_1" xmlns="http://www.w3.org/2000/svg" xmlns:xlink="http://www.w3.org/1999/xlink" x="0px" y="0px"
	 viewBox="0 0 303.4 303.4" style="enable-background:new 0 0 303.4 303.4;" xml:space="preserve">
<style type="text/css">
	.st0{fill:#FFFFFF;}
</style>
<g id="XMLID_00000097461375302220341250000018430151976894835333_">
	<path id="XMLID_00000012429981610662733610000016110661364310421155_" class="st0" d="M32.2,126.9c1.2-2.5,3.3-3.3,6.1-3.3
		c38.1,0.1,76.3,0,114.4,0c0.9,0,1.9,0,3,0c0.1-3.7,0.1-7.5,5.2-7.4c3,0,4.1,1.9,4.5,7.4c0.8,0,1.6,0,2.5,0c15.7,0,31.5,0,47.2,0
		c4.3,0,5.8,1.5,5.8,5.9c0,2.2,0.1,4.4,0,6.5c0,1.3,0.2,1.9,1.7,2.1c23.9,2.9,43.7,22,47.8,45.8c5.2,30.3-14,58.9-43.9,65.1
		c-3.9,0.8-8,1-12,1.1c-8.8,0.2-17.6,0-26.4,0.1c-1.3,0-2.8,0.5-3.8,1.3c-18.8,14.3-40.1,20.9-63.7,19.5c-15.5-0.9-30-5.5-43.3-13.7
		c-3.1-1.9-3.9-4.5-2.3-7c1.5-2.4,4.2-2.8,7.2-1.1c14.6,8.9,30.5,13.1,47.6,12.4c39.8-1.7,72.8-30.1,80.3-69.2
		c0.8-4.1,1.1-8.3,1.6-12.8c-0.9,0.5-1.5,0.8-2,1.1c-6,4-12.4,7.1-19.3,9c-1.5,0.4-2,1.1-1.9,2.6c0.1,7,0,14,0,21
		c0,4.9-1.5,6.4-6.4,6.4c-14.5,0-29,0-43.4,0c-4.3,0-5.9-1.6-5.9-5.9c0-10.4,0-20.9,0-31.3c0-1.5-0.4-2.4-1.6-3.3
		c-3-2.4-6-4.9-8.8-7.6c-21.9-20.8-55.8-21.7-78.7-2.2c-1.5,1.3-2,2.6-2.1,4.6c-0.1,16.4,3.5,31.7,11.8,45.9c1.8,3,1.2,5.8-1.3,7.3
		c-2.5,1.4-5,0.5-6.8-2.5c-7.1-12-11.3-25-12.6-38.9c0-0.5-0.3-1-0.4-1.5C32.2,165.3,32.2,146.1,32.2,126.9z M155.7,133.2
		c-38.2,0-76.1,0-114.1,0c0,8.6,0,17,0,25.5c0.2,0.1,0.3,0.1,0.3,0.1c0.6-0.4,1.2-0.7,1.8-1.1c15.3-10,32-13.6,50.1-10.4
		c13.7,2.4,25.5,8.6,35.5,18.3c1.5,1.5,3.1,2.9,4.8,4.4c4.3-4.3,8.4-8.2,12.2-12.4c2.5-2.6,5-4.6,8.9-4c0.1,0,0.3-0.1,0.5-0.3
		C155.7,146.6,155.7,140,155.7,133.2z M165.4,153.8c4.3-1.2,6.8,1.1,9.3,3.7c3.7,3.9,7.5,7.7,11.4,11.4c1.7,1.6,2.5,3.5,2.4,5.8
		c-0.1,1.9,0,3.8,0,5.9c8.3-2.6,15.3-6.6,21.6-12c1.1-1,1.5-1.9,1.5-3.4c-0.1-10,0-20.1,0-30.1c0-0.7-0.1-1.3-0.1-2
		c-15.4,0-30.7,0-46,0C165.4,140,165.4,146.7,165.4,153.8z M142.1,210.3c12.4,0,24.5,0,36.7,0c0-11.5,0-22.9,0-34.2
		c0-0.7-0.5-1.5-1-2c-3.4-3.5-6.8-6.9-10.2-10.2c-0.5-0.5-1.3-0.8-2.1-1.3c-0.9,6.8-2,8.8-5.1,8.5c-1.1-0.1-2.7-0.6-3.1-1.3
		c-1-2.1-1.5-4.4-2.3-7c-0.4,0.3-1.3,0.6-1.8,1.1c-3.3,3.3-6.7,6.5-9.9,9.9c-0.7,0.8-1.3,2.1-1.3,3.2c-0.1,10.3-0.1,20.7-0.1,31
		C142,208.9,142.1,209.5,142.1,210.3z M221,156.7c0.6,0.2,1.1,0.3,1.7,0.5c20.4,4.8,32.4,22.4,29.5,43.2
		c-2.1,15-15.5,28.7-30.5,30.7c-5.4,0.7-10.9,0.4-16.3,0.6c-0.7,0-1.6-0.1-2,0.3c-2.4,2.9-4.7,5.8-7.2,9c7.2,0,14.1,0.1,20.9-0.1
		c2.7-0.1,5.5-0.4,8.1-1.1c19-4.9,31.4-16.8,35.6-36c4-18.7-2.2-34.3-16.9-46.5c-6.6-5.5-14.3-8.6-22.9-9.7
		C221,150.6,221,153.6,221,156.7z M209.4,222.1c21.6,2,33.6-13,33.9-27.8c0.2-13.4-11.7-28-22.5-27.5
		C222,186.2,219,204.7,209.4,222.1z"/>
	<path id="XMLID_00000155117635656593228260000004330067708383026851_" class="st0" d="M186.3,32.1c2.4,1.5,3.1,3.8,3,6.5
		c-0.2,5.5,0.1,11.1-0.2,16.6c-0.8,15.3-13.2,28.6-28.4,30.1c-6.7,0.7-13.5,0.4-20.3,0.4c-2.3,0-4.4-1.2-4.5-3.6
		c-0.3-9.9-1.8-20,2.2-29.5c4.6-11.1,13-17.7,24.8-20.1c0.4-0.1,0.7-0.3,1-0.5C171.4,32.1,178.8,32.1,186.3,32.1z M152,75.9
		c10.8,1.8,20.8-3.4,25.4-12.8c3.5-6.9,2-14.2,2.4-21.5c-4.5,0-8.7-0.3-12.9,0.1c-10.4,0.9-18.5,7.6-21,17.4
		c-0.8,3.2-0.7,6.6-1.1,10.4c0.9-0.6,1-0.6,1.1-0.8c3-3,5.9-6,9-8.9c0.9-0.8,2-1.6,3.1-1.9c2.1-0.5,3.8,0.3,4.9,2.2
		c1.1,1.8,0.8,4.1-0.9,5.8C158.8,69.2,155.5,72.5,152,75.9z"/>
	<path id="XMLID_00000003800712856636292310000010507764476027450543_" class="st0" d="M63.8,63.4c0-3.2-0.1-6.4,0-9.6
		c0.1-2.7,1.7-4.7,4.2-4.7c7.5,0,15.2-0.6,22.6,0.7c15.8,2.7,26.4,15.9,26.8,32.1c0.1,5.1,0.1,10.1,0,15.2c0,3.9-1.8,5.6-5.7,5.6
		c-5.1,0-10.3,0-15.4,0c-17.3,0-31.8-13.9-32.4-31.1C63.8,68.8,63.9,66.1,63.8,63.4C63.9,63.4,63.9,63.4,63.8,63.4z M73.3,58.2
		c0,4.5,0,8.3,0,12.1c0.2,14.1,13.5,25.1,27.9,22.7c-3.4-3.4-6.7-6.6-10-9.9c-2.1-2.1-2.2-5-0.4-6.9c2-2.1,4.7-2,7,0.2
		c2.9,2.8,5.7,5.7,8.6,8.6c0.4,0.4,0.9,0.7,1.5,1.2c0-1.9,0-3.5,0-5c-0.3-10.4-7.6-19.8-17.7-21.8C84.8,58.3,79.1,58.6,73.3,58.2z"
		/>
	<path id="XMLID_00000147928670496559831270000007350413360257354661_" class="st0" d="M67.2,239.9c0,2.6-2.2,4.8-4.8,4.7
		c-2.4-0.1-4.5-2.3-4.6-4.7c0-2.6,2.1-4.7,4.7-4.7C65.3,235.1,67.3,237.2,67.2,239.9z"/>
</g>
</svg>
