<?xml version="1.0" encoding="utf-8"?>
<!-- Generator: Adobe Illustrator 26.3.1, SVG Export Plug-In . SVG Version: 6.00 Build 0)  -->
<svg version="1.1" id="Layer_1" xmlns="http://www.w3.org/2000/svg" xmlns:xlink="http://www.w3.org/1999/xlink" x="0px" y="0px"
	 viewBox="0 0 303.4 303.4" style="enable-background:new 0 0 303.4 303.4;" xml:space="preserve">
<style type="text/css">
	.st0{fill:#FFFFFF;}
</style>
<g id="XMLID_00000140731703113276216720000016255580723766434979_">
	<path id="XMLID_00000132085693163551113930000004503675047911124384_" class="st0" d="M63.9,263.6c-1.1-0.3-2.2-0.6-3.3-0.9
		c-11.8-3-20.7-14.3-20.7-26.1c0-3.7,1.6-5.3,5.3-5.3c3.4,0,6.8,0,10.5,0c0-1,0-1.9,0-2.7c0-25.8,0-51.6,0-77.3
		c0-7.8,1.7-15.2,6.1-21.7c7.3-10.8,17.4-16.7,30.5-17c7.4-0.2,14.8,0,22.8,0c-1-1.2-1.8-2-2.5-2.9c-7.4-9-9.4-19.1-6.6-30.3
		c0.5-1.8,1.7-3,3.5-3.5c6.9-1.9,13.6-1.6,20.3,0.8c0.5,0.2,1.1,0.4,1.6,0.6c0.1,0,0.3,0,0.6,0c-0.3-5,0.2-10,2.1-14.7
		c2.9-7.5,8-13.1,14.9-17.1c1.8-1,3.4-0.7,5.1,0.4c5,3,9.1,7,12.2,12.2c1.3-2,2.4-4,3.7-5.7c5.9-7.8,13.8-11.9,23.5-12.3
		c3-0.1,5,1.5,5.2,4.1c0.2,2.5-1.6,4.4-4.7,4.6c-8.9,0.7-15.6,4.8-19.4,13c-0.6,1.4-1,2.8-1.5,4.5c10.4,2.5,17.9,8.4,21.4,18.5
		c3.5,10.1,1.3,19.3-5.7,27.7c0.9,0.1,1.5,0.1,2.1,0.1c7.2,0,14.4,0,21.6,0c19.6,0.1,35.7,15,37.2,34.5c0.2,2.1,0.2,4.2,0.2,6.3
		c0,25.1,0,50.1,0,75.2c0,0.9,0,1.7,0,2.9c2.7,0,5.2,0.1,7.7,0c2.7-0.2,4.7,0.7,5.9,3.1c0,1.7,0,3.5,0,5.2c-0.1,0.2-0.3,0.5-0.4,0.7
		c-2.2,11.2-8.8,18.5-19.5,22.1c-1.3,0.5-2.7,0.8-4.1,1.2C181,263.6,122.4,263.6,63.9,263.6z M49.3,240c0.1,0.7,0.2,1,0.3,1.4
		c2.6,8.2,10,13.5,19.3,13.5c55.2,0,110.4,0,165.6-0.1c3.2,0,6.7-0.9,9.7-2.2c5.3-2.3,8.5-6.7,10-12.6c-1,0-1.8,0-2.6,0
		c-26.4,0-52.7,0-79.1,0c-0.7,0-1.5,0-2.2,0c-2.3-0.3-4-2.2-4-4.5c0.1-2.2,1.8-4,4-4.2c0.7-0.1,1.5,0,2.2,0c21.9,0,43.8,0,65.8,0
		c0.8,0,1.7,0,2.5,0c0-19.5,0-38.7,0-58.1c-1.1,0.7-2,1.3-3,1.9c-6.4,3.6-12.9,3.7-19.2,0c-3.2-1.9-6.2-4.1-9.2-6.2
		c-4.4-3-8.1-3-12.5,0c-3.1,2.1-6.2,4.4-9.4,6.3c-6.1,3.6-12.5,3.6-18.7,0.1c-3.4-1.9-6.5-4.4-9.8-6.5c-4.1-2.8-8.1-2.7-12.2,0
		c-3.3,2.2-6.4,4.6-9.8,6.5c-6,3.4-12.2,3.5-18.3,0.1c-3.4-1.9-6.5-4.3-9.8-6.5c-4.3-2.9-8.2-2.9-12.5,0c-2.7,1.8-5.4,3.7-8.1,5.6
		c-4.9,3.3-10.3,4.3-16,2.6c-2.6-0.8-4.9-2.3-7.4-3.5c0,19.2,0,38.4,0,57.8c1,0,1.9,0,2.7,0c21.1,0,42.2,0,63.3,0
		c0.7,0,1.5-0.1,2.2,0c2.1,0.3,3.4,1.4,3.9,3.5c0.6,3-1.5,5.1-5.1,5.1c-26.6,0-53.3,0-79.9,0C51.1,240,50.3,240,49.3,240z
		 M65.2,142.1c-0.2,4.1-0.4,8.1-0.5,12c-0.1,2.7-0.7,5.8,0.4,7.9c1.1,2.1,4.1,3.3,6.3,4.8c4,2.7,8.1,2.7,12.2-0.1
		c2.7-1.8,5.4-3.8,8.1-5.5c7.2-4.7,14.5-4.7,21.7,0c2.7,1.8,5.4,3.7,8.1,5.6c4.1,2.8,8.2,2.8,12.4,0c3.2-2.2,6.3-4.5,9.6-6.4
		c6.1-3.6,12.5-3.6,18.7,0c3.4,2,6.5,4.4,9.8,6.6c3.9,2.6,8.1,2.6,12,0c2.6-1.7,5.1-3.6,7.7-5.3c7.6-5.1,15.2-5.1,22.8,0.1
		c2.6,1.8,5.2,3.7,7.9,5.5c3.5,2.3,7.2,2.5,10.9,0.3c2.3-1.4,4.5-3,6.7-4.6c0.5-0.3,0.9-1,0.9-1.5c0-5.1,0.5-10.3-0.2-15.3
		c-2-14.8-13.8-24.8-28.8-24.9c-39.3-0.1-78.6,0-118,0c-4.7,0-9.3,0.9-13.5,3.1c-4.2,2.1-7.7,5-10.6,9.2c0.8,0,1.3,0,1.7,0
		c10.8,0,21.7,0,32.5,0c2.7,0,4.7,2,4.7,4.4c-0.1,2.4-2,4.2-4.6,4.3c-0.7,0-1.3,0-2,0C90.1,142.1,78,142.1,65.2,142.1z M187.2,93.6
		c0-10.5-8.4-18.9-18.8-18.9c-10.3,0-18.9,8.4-18.8,18.7c0.1,10.6,8.1,18.9,18.8,18.9C179.5,112.3,187.1,103.4,187.2,93.6z
		 M142.1,111.8c0.2-1.1,0.4-2.1,0.5-3.1c0.8-15-12.3-27.2-27.2-25.2c-0.6,0.1-1.5,1-1.6,1.5c-0.5,4.7,0,9.3,2.2,13.6
		C120.8,108.5,129.9,113.1,142.1,111.8z M151.4,54.3c-10.6,6.6-12.9,21.6-8.5,28.4c3.5-8,9.6-13.2,17.8-16
		C158.9,61.5,155.8,57.5,151.4,54.3z"/>
	<path id="XMLID_00000139978502222851187500000010923492926398240959_" class="st0" d="M156.1,235.7c0,2.3-2,4.3-4.3,4.3
		c-2.4,0-4.4-2-4.4-4.4c0-2.4,2.1-4.4,4.5-4.3C154.3,231.4,156.1,233.3,156.1,235.7z"/>
	<path id="XMLID_00000076605911341211265820000011032144244475857328_" class="st0" d="M125.5,137.9c-0.1,2.4-2,4.2-4.4,4.2
		c-2.4,0-4.4-2.1-4.3-4.5c0.1-2.3,2-4.2,4.4-4.2C123.6,133.4,125.6,135.4,125.5,137.9z"/>
</g>
</svg>
