<?xml version="1.0" encoding="utf-8"?>
<!-- Generator: Adobe Illustrator 26.3.1, SVG Export Plug-In . SVG Version: 6.00 Build 0)  -->
<svg version="1.1" id="Layer_1" xmlns="http://www.w3.org/2000/svg" xmlns:xlink="http://www.w3.org/1999/xlink" x="0px" y="0px"
	 viewBox="0 0 303.4 303.4" style="enable-background:new 0 0 303.4 303.4;" xml:space="preserve">
<style type="text/css">
	.st0{fill:#FFFFFF;}
</style>
<g id="XMLID_00000057833670336925972320000009706267316104795056_">
	<path id="XMLID_00000000941628548088289970000009795498669203337620_" class="st0" d="M94.6,278.8c-1.7-0.6-3.5-1-5.1-1.7
		c-6.6-2.8-11-7.7-13.2-14.5c-6.8-20.8-13.5-41.7-20.4-62.5c-0.3-1-1.1-2-2-2.5c-16.7-8.8-18.2-30.3-3-41.3c0.3-0.2,0.5-0.4,0.6-0.4
		c-1.1-3.3-2.4-6.4-3-9.7c-1.7-9.6,1.6-17.5,8.9-23.9c2.3-2,4.6-2,6.1-0.2c1.5,1.8,1,4-1.3,6c-5.6,4.8-7.7,10.9-6.1,18
		c1.6,7.1,6.3,11.6,13.5,13.4c1.9,0.5,3.9,0.5,5.9,0.6c6.9,0.3,13.9,0.5,20.8,0.6c11.1,0.2,21.1,3.5,29.8,10.4
		c7.8,6.1,16.7,9.3,26.7,8.9c8.8-0.3,16.6-3.2,23.5-8.6c3.3-2.6,6.9-3.6,10.9-2.5c4.9,1.3,8.2,5.6,8.2,10.8c0.1,9.5,0,19,0,28.5
		c0,5.7,4.5,9.3,9.6,8c3.4-0.9,5.7-4,5.7-8.1c0-11.2,0-22.5,0-33.7c0-8.5,5.5-14,14-14.3c3.1-0.1,6.3-0.2,9.3-1
		c6.9-1.8,11.3-6.6,12.7-13.5c1.5-7.1-0.7-13.3-6.5-17.8c-5.6-4.4-11.4-8.5-17.2-12.7c-4.4-3.2-7.7-7.2-9.6-12.3
		c-2.5-6.6-6.1-12.6-10.8-17.9c-1.3-1.4-2.1-3.1-0.8-4.7c0.9-1,2.5-1.7,3.9-1.8c0.9-0.1,2,1,2.7,1.8c5,5.5,8.9,11.7,11.5,18.7
		c1.6,4.4,4.3,7.9,8.2,10.6c5.2,3.7,10.3,7.5,15.4,11.3c11.2,8.3,14.2,20.9,8,33.4c-0.1,0.3-0.2,0.6-0.5,1.3
		c0.2,0.1,0.5,0.2,0.8,0.4c15.9,11.3,14.3,33.1-3.1,41.9c-0.8,0.4-1.6,1.4-1.9,2.3c-2.4,7-4.6,14.1-6.9,21.1
		c-0.2,0.5-0.3,0.9-0.5,1.4c-0.9,2.2-2.9,3.2-5,2.5c-1.9-0.7-2.8-2.7-2.1-4.9c1.9-6.1,3.9-12.1,5.8-18.1c0.2-0.6,0.4-1.2,0.6-2.1
		c-6.9,0-13.6,0-20.7,0c0,2.3-0.2,4.7,0,7c0.7,8.7-4.8,16.2-14.9,17.3c-2.9,15.5-5.8,31.1-8.8,47.2c4.8-0.2,9.3,0,13.6-0.8
		c5.6-1,9.3-4.7,11.2-10.1c2.7-8,5.2-16,7.9-24c1-3.1,2.8-4.3,5.2-3.4c2.2,0.8,2.9,2.8,1.9,5.8c-2.5,7.6-4.9,15.2-7.4,22.8
		c-2.9,8.9-8.7,14.6-18,16.6c-0.2,0-0.4,0.3-0.6,0.4C170.4,278.8,132.5,278.8,94.6,278.8z M188,192.4c0-4.4,0.1-8.4,0-12.5
		c-0.1-3.4-3.4-4.9-6.3-3c-0.5,0.3-0.9,0.7-1.4,1.1c-10.7,7.9-22.7,11-36,9.1c-9-1.3-16.8-5.2-23.9-10.7c-5.7-4.5-12.3-7.2-19.5-7.7
		c-8.7-0.6-17.3-0.8-26-1c-6.1-0.1-11.7-1.6-16.7-5.2c-0.6-0.4-1.9-0.5-2.6-0.1c-5.3,3-8.5,10.1-7.4,16.1c1.6,8.8,8.1,14,17.4,14
		c39.9,0,79.7,0,119.6,0C186,192.4,186.8,192.4,188,192.4z M135.6,200c1.7,23.9,3.3,47.6,5,71.2c7.4,0,14.5,0,21.8,0
		c1.7-23.8,3.3-47.5,4.9-71.2C156.6,200,146.3,200,135.6,200z M108.4,271.6c-4.5-24.2-8.9-47.9-13.4-71.6c-10.5,0-20.7,0-30.9,0
		c0.1,0.4,0.1,0.7,0.2,1c6.5,20.2,13,40.3,19.7,60.4c1.8,5.3,5.8,8.7,11.4,9.5C99.5,271.5,103.7,271.3,108.4,271.6z M102.8,200
		c4.5,23.9,8.9,47.6,13.3,71.3c5.7,0,11.2,0,16.9,0c-1.7-23.8-3.3-47.5-5-71.3C119.5,200,111.4,200,102.8,200z M174.9,200
		c-1.7,23.8-3.3,47.5-5,71.3c5.8,0,11.3,0,16.8,0c0.1-0.3,0.2-0.5,0.2-0.7c2.9-15.6,5.9-31.1,8.7-46.7c0.1-0.7-0.5-1.8-1.1-2.3
		c-4.4-3.3-6.7-7.6-6.6-13.2c0-2.8,0-5.6,0-8.4C183.5,200,179.4,200,174.9,200z M218.3,192c7.9,0,15.7,0.4,23.4-0.1
		c6.6-0.4,12-5.9,13.3-12.3c1.4-6.9-1.3-13.5-6.9-17.3c-1.4-0.9-2.2-0.8-3.7,0.1c-2.8,1.7-5.8,3.3-8.9,4.1c-3.3,0.9-6.8,0.8-10.3,1
		c-3.9,0.2-6.7,2.2-6.9,5.8C218.1,179.6,218.3,185.9,218.3,192z"/>
	<path id="XMLID_00000159459616413458468990000001482621476882052240_" class="st0" d="M126.2,68.8c-17.8,5.8-30.4,16.8-37,34.4
		c-2.6,7-8.1,11.3-14,15.2c-1.8,1.2-3.6,0.5-4.8-1.2c-1.1-1.6-0.9-3.3,0.4-4.8c0.2-0.2,0.4-0.4,0.6-0.5c6.7-3.9,10.1-10,13.3-16.9
		c6.9-15.3,18.8-25.8,34.5-31.5c3.9-1.4,5.8-3.2,6.4-7.7c1.8-13.4,13.1-22.5,26.7-22.2c1.9,0,2.9-0.5,4-2.1c1.3-2.1,3-3.9,4.8-5.7
		c1.7-1.7,4-1.6,5.5-0.1c1.5,1.6,1.4,3.5-0.1,5.3c-1.3,1.5-2.6,2.9-3.6,4.1c3.2,2.8,6.5,5.1,9.1,8c4,4.4,5.9,9.9,6.1,15.8
		c0,1.6,0.6,2.3,2,2.9c4.9,2.1,9.8,4.4,14.6,6.7c1.6,0.8,2.6,2.4,1.9,4.1c-0.5,1.2-1.7,2.4-2.9,2.9c-0.9,0.3-2.3-0.4-3.4-0.9
		c-4.4-2-8.8-4.1-13.2-6.1C167.6,92.4,135.5,92.4,126.2,68.8z M158.7,42.7c-0.2,4.5-0.4,8.6-0.5,12.6c-0.1,2.8-1.6,4.6-3.8,4.5
		c-2.2-0.1-3.7-1.8-3.6-4.5c0.1-4.7,0.3-9.5,0.5-14.2c-8.4-0.6-17.1,6.8-18.4,15.6c-1.5,10.5,4.7,19.6,14.9,21.8
		c9.2,2.1,19-3.7,21.9-12.8C172.4,56.7,167.9,46.5,158.7,42.7z"/>
	<path id="XMLID_00000142876165286949161280000004730285191486685356_" class="st0" d="M170.8,145.8c-1.2,0-2.5,0.1-3.7,0
		c-2.1-0.1-3.6-1.7-3.6-3.7c0-2.2,1.4-3.7,3.7-3.7c2.4-0.1,4.8-0.1,7.2,0c2.1,0.1,3.6,1.7,3.6,3.6c0,2-1.4,3.6-3.5,3.8
		C173.3,145.9,172,145.8,170.8,145.8z"/>
	<path id="XMLID_00000096061204001675974750000006344208543230881932_" class="st0" d="M173.5,109.6c0.2,0.1,1,0.1,1.4,0.5
		c2.1,2.2,4.3,4.4,6.1,6.8c1.1,1.5,0.3,3.2-1.1,4.4c-1.4,1.1-3.2,1.2-4.5,0c-1.9-1.8-3.8-3.7-5.3-5.9
		C168.3,112.8,170.1,109.6,173.5,109.6z"/>
	<path id="XMLID_00000036948171769963739270000004965154669674731393_" class="st0" d="M115.5,107.2c1.3,0.5,2.1,0.6,2.8,1.1
		c1.8,1.4,3.5,2.8,5.1,4.3c1.5,1.5,1.5,3.2,0.3,4.9c-1.2,1.6-3.4,2-5.1,0.7c-1.8-1.3-3.7-2.6-5-4.3c-0.8-1-1.1-2.9-0.8-4.2
		C113,108.7,114.6,108,115.5,107.2z"/>
	<path id="XMLID_00000154404238577653856420000008348859122549104009_" class="st0" d="M156,108.4c-2,3-3.6,5.7-5.7,8
		c-0.6,0.6-3.1,0.4-3.9-0.3c-0.9-0.8-1.5-2.9-1.1-4c0.7-2.1,1.9-4.3,3.4-5.9c0.8-0.9,2.9-1.5,4.1-1.2
		C153.9,105.3,154.7,106.9,156,108.4z"/>
	<path id="XMLID_00000159441697907417722150000005972869735415703695_" class="st0" d="M202,135.1c-3.2,0-5.1-2.5-4.2-4.9
		c0.8-2,1.9-3.9,3.1-5.6c1.1-1.6,2.8-2,4.6-1c1.8,1,2.6,2.6,1.7,4.6c-0.8,1.9-1.8,3.7-3,5.4C203.7,134.4,202.5,134.8,202,135.1z"/>
	<path id="XMLID_00000018957629864095243120000011150673039926563508_" class="st0" d="M106.4,136.4c0,2.9-2.8,4.9-5.2,3.7
		c-1.9-0.8-3.6-2-5.3-3.2c-1.5-1.1-2-3-1-4.4c0.7-1.1,2.8-2.3,3.7-2c2.5,0.9,4.8,2.6,7.1,4.1C106.1,135,106.2,136,106.4,136.4z"/>
	<path id="XMLID_00000168839905438858625600000013588529204619890048_" class="st0" d="M140.8,134.5c0,2.8-3.6,7.8-5.5,8.1
		c-1.2,0.1-2.8-0.2-3.5-1c-0.8-0.9-1.3-2.8-0.9-3.7c0.9-2,2.4-4,4-5.5c0.8-0.7,2.7-0.8,3.8-0.3C139.8,132.5,140.4,134,140.8,134.5z"
		/>
	<path id="XMLID_00000179625981851733887780000000481799119465154238_" class="st0" d="M188.4,95.8c-0.1,1,0,2-0.2,2.9
		c-0.5,1.9-1.7,3-3.7,2.9c-2,0-3.3-1.1-3.6-3c-0.2-1.6-0.3-3.3-0.1-4.9c0.2-2.3,1.8-3.7,3.8-3.7c2,0,3.5,1.6,3.8,3.8
		C188.4,94.5,188.4,95.1,188.4,95.8C188.4,95.8,188.4,95.8,188.4,95.8z"/>
</g>
</svg>
