<?xml version="1.0" encoding="utf-8"?>
<!-- Generator: Adobe Illustrator 26.3.1, SVG Export Plug-In . SVG Version: 6.00 Build 0)  -->
<svg version="1.1" id="Layer_1" xmlns="http://www.w3.org/2000/svg" xmlns:xlink="http://www.w3.org/1999/xlink" x="0px" y="0px"
	 viewBox="0 0 303.4 303.4" style="enable-background:new 0 0 303.4 303.4;" xml:space="preserve">
<style type="text/css">
	.st0{fill:#FFFFFF;}
</style>
<g id="XMLID_00000059992604109262041840000003705857343886885308_">
	<path id="XMLID_00000159430475710155988840000000583538895779080610_" class="st0" d="M27.6,170.5c5.2-18.5,19.6-25.2,36.8-28.1
		c2.7-0.5,5.6-0.5,8.5-0.7c-2.2-4.6-6.5-3.4-10.2-3.7c0-2.5,0-4.9,0-7.5c4.4-0.4,8.8-0.5,12.9,2.3c4.4-8.2,11.7-11.7,20.3-13.4
		c10.4-2,20.4-0.5,30.1,3.3c2.5,1,3.2,3.2,2,5.8c-2.4,5.3-6.4,9.3-11.2,12.4c-3.1,2-6.5,3.5-9.9,5.3c12.5,6.3,22.3,14.8,21.6,31
		c-2.7-0.2-5.1-0.5-7.5-0.7c-0.4-2.5-0.5-4.8-1.1-7c-2-6.9-7.1-11.2-13.1-14.5c-5.8-3.1-12-4.8-18.5-5.1c-10-0.5-20-1.1-29.9,1.6
		c-7.5,2-14.2,5.4-19,11.7c-2.7,3.5-4.1,7.5-4,11.9c0.2,9.5,2.2,18.5,6.8,27.3c7.4-9.1,16.8-14,28.4-14.1c2.3-8.1,7.3-13.8,15.7-15
		c5.3-0.8,10.9-0.7,16.1,0.3c7.7,1.5,12.2,7.1,14.3,14.7c1.6,0.1,3.2,0.3,4.8,0.3c0.6,0,1.5-0.5,1.9-1c7.9-10.5,18.4-15.3,31.5-14.6
		c15.2,0.8,29.6,13.8,31.3,29c0.8,6.9,0.1,14,0.1,21.2c-2,0-4.5,0-7.3,0c0-4.7,0.3-9.4-0.1-14.1c-0.4-4.1-0.9-8.5-2.5-12.2
		c-4.2-9.7-12-15.1-22.5-16c-9.4-0.8-17.1,2.8-23.4,10.1c14.8,7.5,22,19.4,21.2,36.3c0.8,0,1.7,0,2.6,0c11.7,0,23.4,0,35.2,0
		c4.5,0,6.1,2.5,4.2,6.6c-1.4,2.9-2.8,5.7-4.4,8.9c1.7,0,2.9,0,4.2,0c12.9,0,25.9,0,38.8,0c7.7,0,12.7-4.9,12.7-12.5
		c0-36.5,0-73.1,0-109.6c0-0.6,0-1.1,0-1.9c-28.4,0-56.7,0-85.3,0c0,15.4,0,30.8,0,46.3c-2.7,0-5,0-7.7,0c0-0.8-0.1-1.5-0.1-2.3
		c0-15.6,0-31.2,0-46.8c0-3.9,1.2-5.1,5-5.1c30.3,0,60.6,0,90.9,0c3.7,0,4.9,1.2,4.9,4.9c0,4.7,0,9.5,0,14.3
		c2.7,0.2,5.2,0.1,7.6,0.6c9.4,1.9,15.6,9.6,15.6,19.1c0,18,0,36,0,54.1c0,11-8.5,19.4-19.5,19.5c-1.1,0-2.3,0-3.7,0
		c-0.2,6.6,0.9,13.4-4,19.4c5.4,0,10.2,0,15,0c2.6,0,5.2,0,7.8,0c3.1,0,4.4,1.4,4.4,4.4c0.1,12.3-9.6,24-21.8,26.1
		c-2.1,0.4-4.3,0.5-6.5,0.5c-63.8,0-127.5-0.1-191.3,0.1c-15.3,0.1-26.6-10.8-28.3-22.8c0-0.2-0.2-0.4-0.4-0.6c0-1.8,0-3.6,0-5.3
		c1.6-3,4.6-2.3,7.6-2.5c-2.7-3.6-5.2-6.8-7.6-10.1c0-1,0-1.9,0-2.9c1.8-3.3,5.1-2.1,7.9-2.5c-0.5-5.3,0-10.3,1.7-15.2
		c0.3-0.8-0.1-2-0.5-2.9c-2.3-5.6-4.9-11.2-6.9-16.9c-1.2-3.4-1.5-7-2.2-10.5C27.6,178,27.6,174.3,27.6,170.5z M35.9,250.6
		c2,9.5,9.8,15.5,20,15.5c63.8,0,127.7,0,191.5,0c1.7,0,3.4-0.2,5.1-0.5c7.4-1.3,14.2-8.1,14.8-15
		C190.3,250.6,113.2,250.6,35.9,250.6z M44,227.3c0.8,0,1.6,0,2.5,0c31.4,0,62.7,0,94.1,0.1c2.6,0,3.2-1,3.3-3.1
		c0-0.6,0.1-1.1,0-1.7c-0.6-8.9-4.1-16.4-11.7-21.3c-10.3-6.6-13.2-6.3-21.6,3.2c-3.7,4.2-5.1,9.4-5.6,14.9c-2.6,0-5.1,0-7.7,0
		c0-4.4,0.8-8.5,2.7-12.3c1.9-3.8,4.3-7.2,6.5-10.9c-4.6,0.6-8.8,2.6-12.5,5.5c-5.8,4.5-8.1,10.6-8.4,17.7c-2.7,0-5.2,0-8,0
		c0.5-3,0.8-5.8,1.5-8.5c1.5-5.5,4.6-10.2,9.2-14.7c-5.4,0.6-9.5,2.5-13.2,5.2c-6,4.5-8.5,10.7-8.8,18c-2.6,0-5.1,0-7.7,0
		c0.1-9,3.5-16.3,9.8-22.8C49.7,197.5,40.4,216.7,44,227.3z M252.8,137.8c0,26.3,0,52,0,77.8c1.3,0,2.4,0,3.5,0
		c6.8-0.2,11.8-5.1,11.8-11.9c0.1-17.9,0.1-35.9,0-53.8c0-5.3-3.2-9.8-8-11.2C257.8,138.1,255.3,138.1,252.8,137.8z M39.4,235.1
		c1.5,2.1,2.9,3.6,4,5.4c1.1,1.8,2.5,2.3,4.6,2.3c43.2-0.1,86.3,0,129.5,0c0.6,0,1.3,0.1,1.9,0c0.5-0.1,1.1-0.4,1.3-0.8
		c1.2-2.2,2.2-4.4,3.4-6.8C135.8,235.1,87.8,235.1,39.4,235.1z M108,188.4c-0.9-3.4-3.9-6.7-7.5-7.1c-4.5-0.5-9.2-0.5-13.7,0
		c-3.8,0.4-7.1,4-7.5,7.1C88.8,188.4,98.3,188.4,108,188.4z M90.8,141.2c9.3-1,18.1-3.1,25.1-9.8C106.7,132.6,98.4,136.1,90.8,141.2
		z M82.9,136.3c5.7-3.1,11.4-6.2,17-9.3C93.2,126.6,85.1,131,82.9,136.3z"/>
	<path id="XMLID_00000079477212920322192240000007988207551818939541_" class="st0" d="M195.4,29.5c1.8,0,4.2,0,6.7,0
		c0.2,4.6-1.3,8.4-4,11.9c-4.9,6.3-4.9,11-0.1,17.2c5.7,7.4,5.6,16.9,0,24.4c-1.8,2.4-2.9,5.2-4.5,8.3c-1.6,0-4.1,0-6.8,0
		c-0.2-4.5,1.1-8.5,3.9-11.7c4.8-5.4,4.7-12.2,0.1-17.7c-5.8-7-5.5-16.7-0.1-24C192.5,35.6,193.6,32.7,195.4,29.5z"/>
	<path id="XMLID_00000122713488526175775100000005212462750006922407_" class="st0" d="M216.7,91.4c-1.7,0-4.1,0-6.7,0
		c-0.2-4.4,1-8.5,3.8-11.6c4.9-5.4,4.8-12.3,0.1-17.9c-5.8-7-5.3-16.6,0.1-24c1.8-2.4,2.9-5.2,4.6-8.4c1.6,0,4,0,6.7,0
		c0.2,4.5-1.1,8.5-4,11.7c-4.7,5.2-4.6,12.1-0.1,17.5c5.9,7.1,5.5,16.7,0,24.2C219.5,85.4,218.4,88.2,216.7,91.4z"/>
	<path id="XMLID_00000013160289163792917990000017018397842844851089_" class="st0" d="M237,134.1c-2.6,0-4.9,0-7.5,0
		c0-2.5,0-4.9,0-7.5c2.5,0,4.9,0,7.5,0C237,129,237,131.4,237,134.1z"/>
	<path id="XMLID_00000042014910398677460750000007224921785463097004_" class="st0" d="M237,142.1c0,2.6,0,5,0,7.5
		c-2.5,0-4.9,0-7.5,0c0-2.4,0-4.8,0-7.5C231.9,142.1,234.3,142.1,237,142.1z"/>
	<path id="XMLID_00000169517866774786249090000003913875475002109861_" class="st0" d="M147.6,192.3c-2.5,0-4.9,0-7.4,0
		c0-2.5,0-4.9,0-7.5c2.4,0,4.8,0,7.4,0C147.6,187.3,147.6,189.8,147.6,192.3z"/>
	<path id="XMLID_00000071546555973904734960000002546547977666340265_" class="st0" d="M163.3,184.8c0,2.5,0,4.9,0,7.4
		c-2.5,0-4.9,0-7.5,0c0-2.4,0-4.8,0-7.4C158.3,184.8,160.8,184.8,163.3,184.8z"/>
</g>
</svg>
