<?xml version="1.0" encoding="utf-8"?>
<!-- Generator: Adobe Illustrator 26.3.1, SVG Export Plug-In . SVG Version: 6.00 Build 0)  -->
<svg version="1.1" id="Layer_1" xmlns="http://www.w3.org/2000/svg" xmlns:xlink="http://www.w3.org/1999/xlink" x="0px" y="0px"
	 viewBox="0 0 35.6 35.6" style="enable-background:new 0 0 35.6 35.6;" xml:space="preserve">
<style type="text/css">
	.st0{fill:#FFFFFF;}
</style>
<g id="XMLID_00000134943511568466733040000003049482713664194714_">
	<g id="XMLID_00000047744561614628262270000014557403895196304281_">
		<path id="XMLID_00000035504263265706180790000008392020708936367774_" class="st0" d="M27.2,6.4c-1.2,0-2.1,0.9-2.1,2.1
			c0,1.2,0.9,2.1,2.1,2.1c1.2,0,2.1-0.9,2.1-2.1C29.3,7.3,28.4,6.4,27.2,6.4z"/>
		<path id="XMLID_00000074406231005401694380000004419587354782538931_" class="st0" d="M18,9c-4.8,0-8.8,3.9-8.8,8.8
			c0,4.8,3.9,8.8,8.8,8.8c4.8,0,8.8-3.9,8.8-8.8C26.7,13,22.8,9,18,9z M18,23.4c-3.1,0-5.6-2.5-5.6-5.6s2.5-5.6,5.6-5.6
			c3.1,0,5.6,2.5,5.6,5.6S21.1,23.4,18,23.4z"/>
		<path id="XMLID_00000092416457493878906570000017916563728960041901_" class="st0" d="M24.9,35.6H10.7C4.8,35.6,0,30.8,0,24.9
			V10.7C0,4.8,4.8,0,10.7,0h14.2c5.9,0,10.7,4.8,10.7,10.7v14.2C35.6,30.8,30.8,35.6,24.9,35.6z M10.7,3.4c-4.1,0-7.3,3.3-7.3,7.3
			v14.2c0,4.1,3.3,7.3,7.3,7.3h14.2c4.1,0,7.3-3.3,7.3-7.3V10.7c0-4.1-3.3-7.3-7.3-7.3H10.7z"/>
	</g>
</g>
</svg>
