<?xml version="1.0" encoding="utf-8"?>
<!-- Generator: Adobe Illustrator 26.3.1, SVG Export Plug-In . SVG Version: 6.00 Build 0)  -->
<svg version="1.1" id="Layer_1" xmlns="http://www.w3.org/2000/svg" xmlns:xlink="http://www.w3.org/1999/xlink" x="0px" y="0px"
	 viewBox="0 0 150 92.4" style="enable-background:new 0 0 150 92.4;" xml:space="preserve">
<style type="text/css">
	.st0{fill:#FFFFFF;}
</style>
<g id="XMLID_00000059301846682450476390000001947802752707949197_">
	<path id="XMLID_00000116938322592160127060000018028596009949733525_" class="st0" d="M148.2,15.7l0,13.3c-1.1,0.6-5.9-5.4-6.4-6
		c-0.5-0.7,4.9-8,5.9-7.6L148.2,15.7z"/>
	<path id="XMLID_00000142872154365267241690000006455224190270346150_" class="st0" d="M98.6,18.3l-1.5,1.5l-2.8-2.7
		c0,0-1-0.9,0.6-2.6c1.6-1.6,2.4-2.5,2.4-2.5s5.6,2.7,6.5,10.4c1.4-6.3,3.5-12.7,6.1-12c2.6,0.7,3.2,3.4,3.2,3.4l-2.4,2.6
		c0,0-0.9-2-1.9-1.8c-1.1,0.3-2,4.4-3.1,8.6c-1.1,4.1-2.8,5.2-2.8,5.2S101.9,19.3,98.6,18.3"/>
	<path id="XMLID_00000156571753293890136490000008665871200964779695_" class="st0" d="M135.8,40.2c-0.7,0.4-2.4,0.9-5,0.9
		c-14.6,0.1-33.6,0.4-42.9,0.1v-7.6c10.5,0,32.7,0,43.6,0c2.6,0,2.4-4.1,0.4-4.3c-3.1-0.3-4.8-0.6-9.2-0.6c-1-0.2-0.3-7.6-0.3-7.6
		s9.3-0.2,11,0.1c0-0.1,0-10.7,0-10.7l5.7-0.1c0.3,1.6,0.2,4.5,0.1,6.8c-0.1,2.2-1.7,4-3.8,4.3l-1.2,0.2c0,0,4.1,0.6,4.7,5.4
		S140.2,37.9,135.8,40.2z"/>
	<path id="XMLID_00000090263896309841526080000009488906642257098895_" class="st0" d="M139.9,53.1c-0.3,0-0.8-0.1-1.1-0.1
		c-2.5,0-7.4,0.9-11.2,4.6c-0.5,0.5-3.2,4-3,3.6c0-0.1,0.8-2,1.5-3.8l0-6.1c0-0.1-6.2,0-6.2,0s0,14.7,0.1,14.8c-0.1-0.1-1.8,0-1.8,0
		h-0.4c0,0-0.3-6-4.5-11c-0.6-0.7-0.9-1-1.8-1.6c-1.9-1.5-2.9,0.5-3.4,1.6c-0.5,1.1-1.1,2.2-1.1,2.2c5.3,8.7,4.7,7.9,5.4,9.9
		c0.7,1.8,0.5,1.4,1.1,3.9c-1-2.4-1.1-2-1.5-2.8c-0.1-0.2-0.4-0.3-0.6-0.4c-0.6,0-1.1-0.2-1.7-0.4c-0.7-0.2-1.5-0.9-2-1.6
		c-2-2.6-0.4-4.3-0.7-4.5c-0.9-0.6-3.5,1.7-4.6,5.7c-1,3.8,0.2,5.7,7.2,6.7c0.9,0.1,2.7,0.1,3.4,0.1c0.1,1,0.2,1.8,0.1,2.3
		c-1.4,1.8-15.8,1.8-25.3,1.7v7.5l16.8-0.1c2.2,0,4.2-0.9,5.7-2.5c0,0,0,0,0,0c5.8-6.4,8.2-9,8.2-9l-0.2,0h29.7V56.8
		C145.6,54.4,142.1,53.3,139.9,53.1z M138.6,66.1l-9.3,0c0,0,0,0,0,0l-1.9-0.1l0,0c5.7-7.9,17.5-10.2,18.1-0.3c0,0.2,0,0.3,0,0.3
		L138.6,66.1z"/>
	<g id="XMLID_00000031186781495940301140000007677233944413969798_">
		<path id="XMLID_00000112591405202140952390000001091989769367824518_" class="st0" d="M69.4,11.1h-7.7v18.8c0,3-2,5.5-4.7,6
			c-0.2,0-0.5,0.1-0.7,0.1c0,0-0.5,0-0.5,0s-0.5,0-0.5,0c-0.2,0-0.6,0-0.8-0.1c-2.6-0.5-4.6-3-4.6-6V11.1h-7.7c0,3.5,0,2.3,0.1,4.7
			c0,4.4,0.1,8.9,0.2,13.3c0,0.2,0,0.7,0,0.9c0,1.3,0.2,2.5,0.6,3.7c1.5,4.4,5.2,7.2,9.7,8c1,0.2,2,0.3,3,0.3c1,0,2-0.1,3-0.3
			c4.5-0.7,8.2-3.5,9.7-8c0.4-1.2,0.6-2.4,0.6-3.7c0-0.2,0-0.7,0-0.9c0.1-4.4,0.2-8.9,0.2-13.3C69.4,13.3,69.4,14.6,69.4,11.1z"/>
		<path id="XMLID_00000016051833078870064990000000064659198853357184_" class="st0" d="M13,17.2v24.5h7.5V20.3v-3.1l4.4,0.1h1.6
			c1.4,0,2.9,0,3.6-0.1v-6H3.4v6.1h5.3L13,17.2z"/>
		<path id="XMLID_00000016765402565764303340000004788252608336501909_" class="st0" d="M28,75.8c0-0.2,0-0.5-0.1-0.7
			c-0.2-1.6-0.9-3.1-1.9-4.3c-0.4-0.5-0.9-1-1.5-1.5c-0.7-0.5-1.8-0.9-2.6-1.2c0.1,0,0.1-0.1,0.2-0.1c0.4-0.2,0.7-0.4,1-0.6
			c0.7-0.5,1.2-0.7,1.9-1.8c0.4-0.6,0.6-1.3,0.8-2c0.2-0.7,0.3-1.2,0.3-1.9c0,0,0-0.1,0-0.1c-0.2-2.2-1.2-4-2.8-5.2
			c-1.9-1.4-4-2.1-7.4-2.1c-1.1,0-1.3,0-3.1,0c-1.8,0-3.3,0.1-5.8,0.1l-0.3,0.3v29.4l0.1,0.1c2.7,0.1,4.8,0.1,6.7,0.1
			c0.5,0,0.8,0,1,0c0.1,0,0.2,0,0.4,0h4.7c4.6,0,8.4-3.8,8.4-8.4v0c0-0.1,0-0.2,0-0.3C28,75.9,28,75.8,28,75.8z M12.5,58.7h1.3h1.7
			h0.3c1.8,0,3.3,1.5,3.3,3.3v0c0,1.8-1.5,3.3-3.3,3.3h-0.3h-2.9h0V58.7z M20.5,75.6c0,2.2-1.8,4.1-4.1,4.1h-3.7v-8.1h3.7
			C18.7,71.5,20.5,73.4,20.5,75.6L20.5,75.6z"/>
		<path id="XMLID_00000181071046058748482640000000535714100028984993_" class="st0" d="M60.3,54.3h-6.9l1.6,4.3l-2.4-4.3H50
			l-9.9,30.4h6.5l2.2-6.6c0.7,0,1,0,2,0h7.5c1,0,2.2,0,2.7-0.1l2,6.7h7.4L60.3,54.3z M50.6,72l0.2-0.7l0.3-0.8
			c1.6-5.3,2.4-7.3,3-9.1c0,0,1-2.6,0.9-2.8c0.1,0.1,0.4,1.2,0.4,1.3c1.3,4.5,2.5,8,3.4,11.1l0.3,1L50.6,72z"/>
	</g>
</g>
</svg>
